solid OpenSCAD_Model
  facet normal -0.1423146456095322 -0.9898214695817793 0
    outer loop
      vertex 9.537476539611816 11.7169189453125 0
      vertex 11.350098609924316 11.456303596496582 8.5
      vertex 9.537476539611816 11.7169189453125 8.5
    endloop
  endfacet
  facet normal -0.1423146456095322 -0.9898214695817793 0
    outer loop
      vertex 11.350098609924316 11.456303596496582 8.5
      vertex 9.537476539611816 11.7169189453125 0
      vertex 11.350098609924316 11.456303596496582 0
    endloop
  endfacet
  facet normal -0.6548608655282552 -0.7557494603369455 0
    outer loop
      vertex 11.350098609924316 11.456303596496582 0
      vertex 12.734073638916016 10.257081985473633 8.5
      vertex 11.350098609924316 11.456303596496582 8.5
    endloop
  endfacet
  facet normal -0.6548608655282552 -0.7557494603369455 0
    outer loop
      vertex 12.734073638916016 10.257081985473633 8.5
      vertex 11.350098609924316 11.456303596496582 0
      vertex 12.734073638916016 10.257081985473633 0
    endloop
  endfacet
  facet normal -0.959492893919808 -0.2817328282564744 0
    outer loop
      vertex 13.25 8.5 0
      vertex 12.734073638916016 10.257081985473633 8.5
      vertex 12.734073638916016 10.257081985473633 0
    endloop
  endfacet
  facet normal -0.959492893919808 -0.2817328282564744 0
    outer loop
      vertex 12.734073638916016 10.257081985473633 8.5
      vertex 13.25 8.5 0
      vertex 13.25 8.5 8.5
    endloop
  endfacet
  facet normal -0.6548608655282552 0.7557494603369455 0
    outer loop
      vertex 12.734073638916016 6.742917060852051 0
      vertex 11.350098609924316 5.543695449829102 8.5
      vertex 12.734073638916016 6.742917060852051 8.5
    endloop
  endfacet
  facet normal -0.6548608655282552 0.7557494603369455 0
    outer loop
      vertex 11.350098609924316 5.543695449829102 8.5
      vertex 12.734073638916016 6.742917060852051 0
      vertex 11.350098609924316 5.543695449829102 0
    endloop
  endfacet
  facet normal 1 0 0
    outer loop
      vertex 6.881647109985352 7.584368705749512 8.5
      vertex 6.881647109985352 9.415630340576172 0
      vertex 6.881647109985352 9.415630340576172 8.5
    endloop
  endfacet
  facet normal 1 0 0
    outer loop
      vertex 6.881647109985352 9.415630340576172 0
      vertex 6.881647109985352 7.584368705749512 8.5
      vertex 6.881647109985352 7.584368705749512 0
    endloop
  endfacet
  facet normal 0.8412534080662403 0.5406410115935859 0
    outer loop
      vertex 7.871702194213867 6.043813705444336 8.5
      vertex 6.881647109985352 7.584368705749512 0
      vertex 6.881647109985352 7.584368705749512 8.5
    endloop
  endfacet
  facet normal 0.8412534080662403 0.5406410115935859 0
    outer loop
      vertex 6.881647109985352 7.584368705749512 0
      vertex 7.871702194213867 6.043813705444336 8.5
      vertex 7.871702194213867 6.043813705444336 0
    endloop
  endfacet
  facet normal 0.8412534080662403 -0.5406410115935859 0
    outer loop
      vertex 6.881647109985352 9.415630340576172 8.5
      vertex 7.871702194213867 10.956185340881348 0
      vertex 7.871702194213867 10.956185340881348 8.5
    endloop
  endfacet
  facet normal 0.8412534080662403 -0.5406410115935859 0
    outer loop
      vertex 7.871702194213867 10.956185340881348 0
      vertex 6.881647109985352 9.415630340576172 8.5
      vertex 6.881647109985352 9.415630340576172 0
    endloop
  endfacet
  facet normal 0.4154149907388313 0.9096320055217146 0
    outer loop
      vertex 9.537476539611816 5.283080101013184 0
      vertex 7.871702194213867 6.043813705444336 8.5
      vertex 9.537476539611816 5.283080101013184 8.5
    endloop
  endfacet
  facet normal 0.4154149907388313 0.9096320055217146 0
    outer loop
      vertex 7.871702194213867 6.043813705444336 8.5
      vertex 9.537476539611816 5.283080101013184 0
      vertex 7.871702194213867 6.043813705444336 0
    endloop
  endfacet
  facet normal 0.4154149907388313 -0.9096320055217146 0
    outer loop
      vertex 7.871702194213867 10.956185340881348 0
      vertex 9.537476539611816 11.7169189453125 8.5
      vertex 7.871702194213867 10.956185340881348 8.5
    endloop
  endfacet
  facet normal 0.4154149907388313 -0.9096320055217146 0
    outer loop
      vertex 9.537476539611816 11.7169189453125 8.5
      vertex 7.871702194213867 10.956185340881348 0
      vertex 9.537476539611816 11.7169189453125 0
    endloop
  endfacet
  facet normal -0.9594929352554235 0.28173268748040553 0
    outer loop
      vertex 12.734073638916016 6.742917060852051 0
      vertex 13.25 8.5 8.5
      vertex 13.25 8.5 0
    endloop
  endfacet
  facet normal -0.9594929352554235 0.28173268748040553 0
    outer loop
      vertex 13.25 8.5 8.5
      vertex 12.734073638916016 6.742917060852051 0
      vertex 12.734073638916016 6.742917060852051 8.5
    endloop
  endfacet
  facet normal -0.1423146456095322 0.9898214695817793 0
    outer loop
      vertex 11.350098609924316 5.543695449829102 0
      vertex 9.537476539611816 5.283080101013184 8.5
      vertex 11.350098609924316 5.543695449829102 8.5
    endloop
  endfacet
  facet normal -0.1423146456095322 0.9898214695817793 0
    outer loop
      vertex 9.537476539611816 5.283080101013184 8.5
      vertex 11.350098609924316 5.543695449829102 0
      vertex 9.537476539611816 5.283080101013184 0
    endloop
  endfacet
  facet normal -0.14231311492803883 -0.9898216896590409 0
    outer loop
      vertex 9.537476539611816 114.7169189453125 0
      vertex 11.350098609924316 114.45630645751953 8.5
      vertex 9.537476539611816 114.7169189453125 8.5
    endloop
  endfacet
  facet normal -0.14231311492803883 -0.9898216896590409 0
    outer loop
      vertex 11.350098609924316 114.45630645751953 8.5
      vertex 9.537476539611816 114.7169189453125 0
      vertex 11.350098609924316 114.45630645751953 0
    endloop
  endfacet
  facet normal -0.6548623527449885 -0.7557481716532951 0
    outer loop
      vertex 11.350098609924316 114.45630645751953 0
      vertex 12.734073638916016 113.257080078125 8.5
      vertex 11.350098609924316 114.45630645751953 8.5
    endloop
  endfacet
  facet normal -0.6548623527449885 -0.7557481716532951 0
    outer loop
      vertex 12.734073638916016 113.257080078125 8.5
      vertex 11.350098609924316 114.45630645751953 0
      vertex 12.734073638916016 113.257080078125 0
    endloop
  endfacet
  facet normal -0.9594928112483913 -0.28173310980901584 0
    outer loop
      vertex 13.25 111.5 0
      vertex 12.734073638916016 113.257080078125 8.5
      vertex 12.734073638916016 113.257080078125 0
    endloop
  endfacet
  facet normal -0.9594928112483913 -0.28173310980901584 0
    outer loop
      vertex 12.734073638916016 113.257080078125 8.5
      vertex 13.25 111.5 0
      vertex 13.25 111.5 8.5
    endloop
  endfacet
  facet normal -0.6548623527449885 0.7557481716532951 0
    outer loop
      vertex 12.734073638916016 109.742919921875 0
      vertex 11.350098609924316 108.54369354248047 8.5
      vertex 12.734073638916016 109.742919921875 8.5
    endloop
  endfacet
  facet normal -0.6548623527449885 0.7557481716532951 0
    outer loop
      vertex 11.350098609924316 108.54369354248047 8.5
      vertex 12.734073638916016 109.742919921875 0
      vertex 11.350098609924316 108.54369354248047 0
    endloop
  endfacet
  facet normal 1 0 0
    outer loop
      vertex 6.881647109985352 110.58436584472656 8.5
      vertex 6.881647109985352 112.41563415527344 0
      vertex 6.881647109985352 112.41563415527344 8.5
    endloop
  endfacet
  facet normal 1 0 0
    outer loop
      vertex 6.881647109985352 112.41563415527344 0
      vertex 6.881647109985352 110.58436584472656 8.5
      vertex 6.881647109985352 110.58436584472656 0
    endloop
  endfacet
  facet normal 0.8412526469707986 0.540642195878776 0
    outer loop
      vertex 7.871702194213867 109.04381561279297 8.5
      vertex 6.881647109985352 110.58436584472656 0
      vertex 6.881647109985352 110.58436584472656 8.5
    endloop
  endfacet
  facet normal 0.8412526469707986 0.540642195878776 0
    outer loop
      vertex 6.881647109985352 110.58436584472656 0
      vertex 7.871702194213867 109.04381561279297 8.5
      vertex 7.871702194213867 109.04381561279297 0
    endloop
  endfacet
  facet normal 0.8412526469707986 -0.540642195878776 0
    outer loop
      vertex 6.881647109985352 112.41563415527344 8.5
      vertex 7.871702194213867 113.95618438720703 0
      vertex 7.871702194213867 113.95618438720703 8.5
    endloop
  endfacet
  facet normal 0.8412526469707986 -0.540642195878776 0
    outer loop
      vertex 7.871702194213867 113.95618438720703 0
      vertex 6.881647109985352 112.41563415527344 8.5
      vertex 6.881647109985352 112.41563415527344 0
    endloop
  endfacet
  facet normal 0.4154154216432767 0.9096318087341375 0
    outer loop
      vertex 9.537476539611816 108.2830810546875 0
      vertex 7.871702194213867 109.04381561279297 8.5
      vertex 9.537476539611816 108.2830810546875 8.5
    endloop
  endfacet
  facet normal 0.4154154216432767 0.9096318087341375 0
    outer loop
      vertex 7.871702194213867 109.04381561279297 8.5
      vertex 9.537476539611816 108.2830810546875 0
      vertex 7.871702194213867 109.04381561279297 0
    endloop
  endfacet
  facet normal 0.4154154216432767 -0.9096318087341375 0
    outer loop
      vertex 7.871702194213867 113.95618438720703 0
      vertex 9.537476539611816 114.7169189453125 8.5
      vertex 7.871702194213867 113.95618438720703 8.5
    endloop
  endfacet
  facet normal 0.4154154216432767 -0.9096318087341375 0
    outer loop
      vertex 9.537476539611816 114.7169189453125 8.5
      vertex 7.871702194213867 113.95618438720703 0
      vertex 9.537476539611816 114.7169189453125 0
    endloop
  endfacet
  facet normal -0.9594928112483913 0.28173310980901584 0
    outer loop
      vertex 12.734073638916016 109.742919921875 0
      vertex 13.25 111.5 8.5
      vertex 13.25 111.5 0
    endloop
  endfacet
  facet normal -0.9594928112483913 0.28173310980901584 0
    outer loop
      vertex 13.25 111.5 8.5
      vertex 12.734073638916016 109.742919921875 0
      vertex 12.734073638916016 109.742919921875 8.5
    endloop
  endfacet
  facet normal -0.14231311492803883 0.9898216896590409 0
    outer loop
      vertex 11.350098609924316 108.54369354248047 0
      vertex 9.537476539611816 108.2830810546875 8.5
      vertex 11.350098609924316 108.54369354248047 8.5
    endloop
  endfacet
  facet normal -0.14231311492803883 0.9898216896590409 0
    outer loop
      vertex 9.537476539611816 108.2830810546875 8.5
      vertex 11.350098609924316 108.54369354248047 0
      vertex 9.537476539611816 108.2830810546875 0
    endloop
  endfacet
  facet normal -0.1423146456095322 -0.9898214695817793 0
    outer loop
      vertex 41.5374755859375 11.7169189453125 0
      vertex 43.35009765625 11.456303596496582 8.5
      vertex 41.5374755859375 11.7169189453125 8.5
    endloop
  endfacet
  facet normal -0.1423146456095322 -0.9898214695817793 0
    outer loop
      vertex 43.35009765625 11.456303596496582 8.5
      vertex 41.5374755859375 11.7169189453125 0
      vertex 43.35009765625 11.456303596496582 0
    endloop
  endfacet
  facet normal -0.6548606077914417 -0.7557496836671674 0
    outer loop
      vertex 43.35009765625 11.456303596496582 0
      vertex 44.734073638916016 10.257081985473633 8.5
      vertex 43.35009765625 11.456303596496582 8.5
    endloop
  endfacet
  facet normal -0.6548606077914417 -0.7557496836671674 0
    outer loop
      vertex 44.734073638916016 10.257081985473633 8.5
      vertex 43.35009765625 11.456303596496582 0
      vertex 44.734073638916016 10.257081985473633 0
    endloop
  endfacet
  facet normal -0.959492893919808 -0.2817328282564744 0
    outer loop
      vertex 45.25 8.5 0
      vertex 44.734073638916016 10.257081985473633 8.5
      vertex 44.734073638916016 10.257081985473633 0
    endloop
  endfacet
  facet normal -0.959492893919808 -0.2817328282564744 0
    outer loop
      vertex 44.734073638916016 10.257081985473633 8.5
      vertex 45.25 8.5 0
      vertex 45.25 8.5 8.5
    endloop
  endfacet
  facet normal -0.9594929352554235 0.28173268748040553 0
    outer loop
      vertex 44.734073638916016 6.742917060852051 0
      vertex 45.25 8.5 8.5
      vertex 45.25 8.5 0
    endloop
  endfacet
  facet normal -0.9594929352554235 0.28173268748040553 0
    outer loop
      vertex 45.25 8.5 8.5
      vertex 44.734073638916016 6.742917060852051 0
      vertex 44.734073638916016 6.742917060852051 8.5
    endloop
  endfacet
  facet normal 0.8412524606395102 -0.5406424858147658 0
    outer loop
      vertex 38.88164520263672 9.415630340576172 8.5
      vertex 39.8717041015625 10.956185340881348 0
      vertex 39.8717041015625 10.956185340881348 8.5
    endloop
  endfacet
  facet normal 0.8412524606395102 -0.5406424858147658 0
    outer loop
      vertex 39.8717041015625 10.956185340881348 0
      vertex 38.88164520263672 9.415630340576172 8.5
      vertex 38.88164520263672 9.415630340576172 0
    endloop
  endfacet
  facet normal 0.8412524606395102 0.5406424858147658 0
    outer loop
      vertex 39.8717041015625 6.043813705444336 8.5
      vertex 38.88164520263672 7.584368705749512 0
      vertex 38.88164520263672 7.584368705749512 8.5
    endloop
  endfacet
  facet normal 0.8412524606395102 0.5406424858147658 0
    outer loop
      vertex 38.88164520263672 7.584368705749512 0
      vertex 39.8717041015625 6.043813705444336 8.5
      vertex 39.8717041015625 6.043813705444336 0
    endloop
  endfacet
  facet normal -0.1423146456095322 0.9898214695817793 0
    outer loop
      vertex 43.35009765625 5.543695449829102 0
      vertex 41.5374755859375 5.283080101013184 8.5
      vertex 43.35009765625 5.543695449829102 8.5
    endloop
  endfacet
  facet normal -0.1423146456095322 0.9898214695817793 0
    outer loop
      vertex 41.5374755859375 5.283080101013184 8.5
      vertex 43.35009765625 5.543695449829102 0
      vertex 41.5374755859375 5.283080101013184 0
    endloop
  endfacet
  facet normal 0.4154155811021356 0.9096317359116133 0
    outer loop
      vertex 41.5374755859375 5.283080101013184 0
      vertex 39.8717041015625 6.043813705444336 8.5
      vertex 41.5374755859375 5.283080101013184 8.5
    endloop
  endfacet
  facet normal 0.4154155811021356 0.9096317359116133 0
    outer loop
      vertex 39.8717041015625 6.043813705444336 8.5
      vertex 41.5374755859375 5.283080101013184 0
      vertex 39.8717041015625 6.043813705444336 0
    endloop
  endfacet
  facet normal 0.4154155811021356 -0.9096317359116133 0
    outer loop
      vertex 39.8717041015625 10.956185340881348 0
      vertex 41.5374755859375 11.7169189453125 8.5
      vertex 39.8717041015625 10.956185340881348 8.5
    endloop
  endfacet
  facet normal 0.4154155811021356 -0.9096317359116133 0
    outer loop
      vertex 41.5374755859375 11.7169189453125 8.5
      vertex 39.8717041015625 10.956185340881348 0
      vertex 41.5374755859375 11.7169189453125 0
    endloop
  endfacet
  facet normal -0.6548606077914417 0.7557496836671674 0
    outer loop
      vertex 44.734073638916016 6.742917060852051 0
      vertex 43.35009765625 5.543695449829102 8.5
      vertex 44.734073638916016 6.742917060852051 8.5
    endloop
  endfacet
  facet normal -0.6548606077914417 0.7557496836671674 0
    outer loop
      vertex 43.35009765625 5.543695449829102 8.5
      vertex 44.734073638916016 6.742917060852051 0
      vertex 43.35009765625 5.543695449829102 0
    endloop
  endfacet
  facet normal 1 0 0
    outer loop
      vertex 38.88164520263672 7.584368705749512 8.5
      vertex 38.88164520263672 9.415630340576172 0
      vertex 38.88164520263672 9.415630340576172 8.5
    endloop
  endfacet
  facet normal 1 0 0
    outer loop
      vertex 38.88164520263672 9.415630340576172 0
      vertex 38.88164520263672 7.584368705749512 8.5
      vertex 38.88164520263672 7.584368705749512 0
    endloop
  endfacet
  facet normal -0.14231311492803883 -0.9898216896590409 0
    outer loop
      vertex 41.5374755859375 114.7169189453125 0
      vertex 43.35009765625 114.45630645751953 8.5
      vertex 41.5374755859375 114.7169189453125 8.5
    endloop
  endfacet
  facet normal -0.14231311492803883 -0.9898216896590409 0
    outer loop
      vertex 43.35009765625 114.45630645751953 8.5
      vertex 41.5374755859375 114.7169189453125 0
      vertex 43.35009765625 114.45630645751953 0
    endloop
  endfacet
  facet normal -0.6548620950084685 -0.7557483949841505 0
    outer loop
      vertex 43.35009765625 114.45630645751953 0
      vertex 44.734073638916016 113.257080078125 8.5
      vertex 43.35009765625 114.45630645751953 8.5
    endloop
  endfacet
  facet normal -0.6548620950084685 -0.7557483949841505 0
    outer loop
      vertex 44.734073638916016 113.257080078125 8.5
      vertex 43.35009765625 114.45630645751953 0
      vertex 44.734073638916016 113.257080078125 0
    endloop
  endfacet
  facet normal -0.9594928112483913 -0.28173310980901584 0
    outer loop
      vertex 45.25 111.5 0
      vertex 44.734073638916016 113.257080078125 8.5
      vertex 44.734073638916016 113.257080078125 0
    endloop
  endfacet
  facet normal -0.9594928112483913 -0.28173310980901584 0
    outer loop
      vertex 44.734073638916016 113.257080078125 8.5
      vertex 45.25 111.5 0
      vertex 45.25 111.5 8.5
    endloop
  endfacet
  facet normal -0.9594928112483913 0.28173310980901584 0
    outer loop
      vertex 44.734073638916016 109.742919921875 0
      vertex 45.25 111.5 8.5
      vertex 45.25 111.5 0
    endloop
  endfacet
  facet normal -0.9594928112483913 0.28173310980901584 0
    outer loop
      vertex 45.25 111.5 8.5
      vertex 44.734073638916016 109.742919921875 0
      vertex 44.734073638916016 109.742919921875 8.5
    endloop
  endfacet
  facet normal 0.841251699540775 -0.5406436701005177 0
    outer loop
      vertex 38.88164520263672 112.41563415527344 8.5
      vertex 39.8717041015625 113.95618438720703 0
      vertex 39.8717041015625 113.95618438720703 8.5
    endloop
  endfacet
  facet normal 0.841251699540775 -0.5406436701005177 0
    outer loop
      vertex 39.8717041015625 113.95618438720703 0
      vertex 38.88164520263672 112.41563415527344 8.5
      vertex 38.88164520263672 112.41563415527344 0
    endloop
  endfacet
  facet normal 0.841251699540775 0.5406436701005177 0
    outer loop
      vertex 39.8717041015625 109.04381561279297 8.5
      vertex 38.88164520263672 110.58436584472656 0
      vertex 38.88164520263672 110.58436584472656 8.5
    endloop
  endfacet
  facet normal 0.841251699540775 0.5406436701005177 0
    outer loop
      vertex 38.88164520263672 110.58436584472656 0
      vertex 39.8717041015625 109.04381561279297 8.5
      vertex 39.8717041015625 109.04381561279297 0
    endloop
  endfacet
  facet normal -0.14231311492803883 0.9898216896590409 0
    outer loop
      vertex 43.35009765625 108.54369354248047 0
      vertex 41.5374755859375 108.2830810546875 8.5
      vertex 43.35009765625 108.54369354248047 8.5
    endloop
  endfacet
  facet normal -0.14231311492803883 0.9898216896590409 0
    outer loop
      vertex 41.5374755859375 108.2830810546875 8.5
      vertex 43.35009765625 108.54369354248047 0
      vertex 41.5374755859375 108.2830810546875 0
    endloop
  endfacet
  facet normal 0.415416012006938 0.9096315391235352 0
    outer loop
      vertex 41.5374755859375 108.2830810546875 0
      vertex 39.8717041015625 109.04381561279297 8.5
      vertex 41.5374755859375 108.2830810546875 8.5
    endloop
  endfacet
  facet normal 0.415416012006938 0.9096315391235352 0
    outer loop
      vertex 39.8717041015625 109.04381561279297 8.5
      vertex 41.5374755859375 108.2830810546875 0
      vertex 39.8717041015625 109.04381561279297 0
    endloop
  endfacet
  facet normal 0.415416012006938 -0.9096315391235352 0
    outer loop
      vertex 39.8717041015625 113.95618438720703 0
      vertex 41.5374755859375 114.7169189453125 8.5
      vertex 39.8717041015625 113.95618438720703 8.5
    endloop
  endfacet
  facet normal 0.415416012006938 -0.9096315391235352 0
    outer loop
      vertex 41.5374755859375 114.7169189453125 8.5
      vertex 39.8717041015625 113.95618438720703 0
      vertex 41.5374755859375 114.7169189453125 0
    endloop
  endfacet
  facet normal -0.6548620950084685 0.7557483949841505 0
    outer loop
      vertex 44.734073638916016 109.742919921875 0
      vertex 43.35009765625 108.54369354248047 8.5
      vertex 44.734073638916016 109.742919921875 8.5
    endloop
  endfacet
  facet normal -0.6548620950084685 0.7557483949841505 0
    outer loop
      vertex 43.35009765625 108.54369354248047 8.5
      vertex 44.734073638916016 109.742919921875 0
      vertex 43.35009765625 108.54369354248047 0
    endloop
  endfacet
  facet normal 1 0 0
    outer loop
      vertex 38.88164520263672 110.58436584472656 8.5
      vertex 38.88164520263672 112.41563415527344 0
      vertex 38.88164520263672 112.41563415527344 8.5
    endloop
  endfacet
  facet normal 1 0 0
    outer loop
      vertex 38.88164520263672 112.41563415527344 0
      vertex 38.88164520263672 110.58436584472656 8.5
      vertex 38.88164520263672 110.58436584472656 0
    endloop
  endfacet
  facet normal 0.34201989243708464 -0.9396927121018472 0
    outer loop
      vertex 47.45506286621094 0.08355712890625 0
      vertex 49.25 0.7368602752685547 8.5
      vertex 47.45506286621094 0.08355712890625 8.5
    endloop
  endfacet
  facet normal 0.34201989243708464 -0.9396927121018472 0
    outer loop
      vertex 49.25 0.7368602752685547 8.5
      vertex 47.45506286621094 0.08355712890625 0
      vertex 49.25 0.7368602752685547 0
    endloop
  endfacet
  facet normal 1 0 0
    outer loop
      vertex 52 5.5 8.5
      vertex 52 114.5 0
      vertex 52 114.5 8.5
    endloop
  endfacet
  facet normal 1 0 0
    outer loop
      vertex 52 114.5 0
      vertex 52 5.5 8.5
      vertex 52 5.5 0
    endloop
  endfacet
  facet normal 0.9848076551253206 0.1736487328101398 0
    outer loop
      vertex 52 114.5 8.5
      vertex 51.66830825805664 116.38111114501953 0
      vertex 51.66830825805664 116.38111114501953 8.5
    endloop
  endfacet
  facet normal 0.9848076551253206 0.1736487328101398 0
    outer loop
      vertex 51.66830825805664 116.38111114501953 0
      vertex 52 114.5 8.5
      vertex 52 114.5 0
    endloop
  endfacet
  facet normal -0.34202037382563133 -0.939692536890751 0
    outer loop
      vertex 2.75 0.7368602752685547 0
      vertex 4.544934272766113 0.08355712890625 8.5
      vertex 2.75 0.7368602752685547 8.5
    endloop
  endfacet
  facet normal -0.34202037382563133 -0.939692536890751 0
    outer loop
      vertex 4.544934272766113 0.08355712890625 8.5
      vertex 2.75 0.7368602752685547 0
      vertex 4.544934272766113 0.08355712890625 0
    endloop
  endfacet
  facet normal 0.3420207741723145 0.939692391176267 0
    outer loop
      vertex 49.25 119.26313781738281 0
      vertex 47.45506286621094 119.91644287109375 8.5
      vertex 49.25 119.26313781738281 8.5
    endloop
  endfacet
  facet normal 0.3420207741723145 0.939692391176267 0
    outer loop
      vertex 47.45506286621094 119.91644287109375 8.5
      vertex 49.25 119.26313781738281 0
      vertex 47.45506286621094 119.91644287109375 0
    endloop
  endfacet
  facet normal 0.8660258189859209 0.49999928084924755 0
    outer loop
      vertex 51.66830825805664 116.38111114501953 8.5
      vertex 50.7132453918457 118.03533172607422 0
      vertex 50.7132453918457 118.03533172607422 8.5
    endloop
  endfacet
  facet normal 0.8660258189859209 0.49999928084924755 0
    outer loop
      vertex 50.7132453918457 118.03533172607422 0
      vertex 51.66830825805664 116.38111114501953 8.5
      vertex 51.66830825805664 116.38111114501953 0
    endloop
  endfacet
  facet normal 0.6427871108779275 -0.7660448616688236 0
    outer loop
      vertex 49.25 0.7368602752685547 0
      vertex 50.7132453918457 1.9646673202514648 8.5
      vertex 49.25 0.7368602752685547 8.5
    endloop
  endfacet
  facet normal 0.6427871108779275 -0.7660448616688236 0
    outer loop
      vertex 50.7132453918457 1.9646673202514648 8.5
      vertex 49.25 0.7368602752685547 0
      vertex 50.7132453918457 1.9646673202514648 0
    endloop
  endfacet
  facet normal -0.6427873567213519 -0.7660446553819025 0
    outer loop
      vertex 1.2867555618286133 1.9646673202514648 0
      vertex 2.75 0.7368602752685547 8.5
      vertex 1.2867555618286133 1.9646673202514648 8.5
    endloop
  endfacet
  facet normal -0.6427873567213519 -0.7660446553819025 0
    outer loop
      vertex 2.75 0.7368602752685547 8.5
      vertex 1.2867555618286133 1.9646673202514648 0
      vertex 2.75 0.7368602752685547 0
    endloop
  endfacet
  facet normal -0.8660252952306173 -0.5000001880206868 0
    outer loop
      vertex 1.2867555618286133 1.9646673202514648 0
      vertex 0.33168983459472656 3.6188888549804688 8.5
      vertex 0.33168983459472656 3.6188888549804688 0
    endloop
  endfacet
  facet normal -0.8660252952306173 -0.5000001880206868 0
    outer loop
      vertex 0.33168983459472656 3.6188888549804688 8.5
      vertex 1.2867555618286133 1.9646673202514648 0
      vertex 1.2867555618286133 1.9646673202514648 8.5
    endloop
  endfacet
  facet normal 0 -1 0
    outer loop
      vertex 4.544934272766113 0.08355712890625 0
      vertex 47.45506286621094 0.08355712890625 8.5
      vertex 4.544934272766113 0.08355712890625 8.5
    endloop
  endfacet
  facet normal 0 -1 0
    outer loop
      vertex 47.45506286621094 0.08355712890625 8.5
      vertex 4.544934272766113 0.08355712890625 0
      vertex 47.45506286621094 0.08355712890625 0
    endloop
  endfacet
  facet normal -0.9848078258864194 -0.1736477643762337 0
    outer loop
      vertex 0.33168983459472656 3.6188888549804688 0
      vertex 0 5.5 8.5
      vertex 0 5.5 0
    endloop
  endfacet
  facet normal -0.9848078258864194 -0.1736477643762337 0
    outer loop
      vertex 0 5.5 8.5
      vertex 0.33168983459472656 3.6188888549804688 0
      vertex 0.33168983459472656 3.6188888549804688 8.5
    endloop
  endfacet
  facet normal 0 1 0
    outer loop
      vertex 47.45506286621094 119.91644287109375 0
      vertex 4.544934272766113 119.91644287109375 8.5
      vertex 47.45506286621094 119.91644287109375 8.5
    endloop
  endfacet
  facet normal 0 1 0
    outer loop
      vertex 4.544934272766113 119.91644287109375 8.5
      vertex 47.45506286621094 119.91644287109375 0
      vertex 4.544934272766113 119.91644287109375 0
    endloop
  endfacet
  facet normal -0.8660251704125048 0.5000004042118286 0
    outer loop
      vertex 0.33168983459472656 116.38111114501953 0
      vertex 1.2867555618286133 118.03533172607422 8.5
      vertex 1.2867555618286133 118.03533172607422 0
    endloop
  endfacet
  facet normal -0.8660251704125048 0.5000004042118286 0
    outer loop
      vertex 1.2867555618286133 118.03533172607422 8.5
      vertex 0.33168983459472656 116.38111114501953 0
      vertex 0.33168983459472656 116.38111114501953 8.5
    endloop
  endfacet
  facet normal -0.6427870637361576 0.7660449012254106 0
    outer loop
      vertex 2.75 119.26313781738281 0
      vertex 1.2867555618286133 118.03533172607422 8.5
      vertex 2.75 119.26313781738281 8.5
    endloop
  endfacet
  facet normal -0.6427870637361576 0.7660449012254106 0
    outer loop
      vertex 1.2867555618286133 118.03533172607422 8.5
      vertex 2.75 119.26313781738281 0
      vertex 1.2867555618286133 118.03533172607422 0
    endloop
  endfacet
  facet normal -1 0 0
    outer loop
      vertex 0 5.5 0
      vertex 0 114.5 8.5
      vertex 0 114.5 0
    endloop
  endfacet
  facet normal -1 0 0
    outer loop
      vertex 0 114.5 8.5
      vertex 0 5.5 0
      vertex 0 5.5 8.5
    endloop
  endfacet
  facet normal -0.3420212555617735 0.9396922159643274 0
    outer loop
      vertex 4.544934272766113 119.91644287109375 0
      vertex 2.75 119.26313781738281 8.5
      vertex 4.544934272766113 119.91644287109375 8.5
    endloop
  endfacet
  facet normal -0.3420212555617735 0.9396922159643274 0
    outer loop
      vertex 2.75 119.26313781738281 8.5
      vertex 4.544934272766113 119.91644287109375 0
      vertex 2.75 119.26313781738281 0
    endloop
  endfacet
  facet normal 0.6427868178926873 0.7660451075122099 0
    outer loop
      vertex 50.7132453918457 118.03533172607422 0
      vertex 49.25 119.26313781738281 8.5
      vertex 50.7132453918457 118.03533172607422 8.5
    endloop
  endfacet
  facet normal 0.6427868178926873 0.7660451075122099 0
    outer loop
      vertex 49.25 119.26313781738281 8.5
      vertex 50.7132453918457 118.03533172607422 0
      vertex 49.25 119.26313781738281 0
    endloop
  endfacet
  facet normal 0.8660259438035661 -0.4999990646582677 0
    outer loop
      vertex 50.7132453918457 1.9646673202514648 8.5
      vertex 51.66830825805664 3.6188888549804688 0
      vertex 51.66830825805664 3.6188888549804688 8.5
    endloop
  endfacet
  facet normal 0.8660259438035661 -0.4999990646582677 0
    outer loop
      vertex 51.66830825805664 3.6188888549804688 0
      vertex 50.7132453918457 1.9646673202514648 8.5
      vertex 50.7132453918457 1.9646673202514648 0
    endloop
  endfacet
  facet normal 0.9848076551253206 -0.1736487328101398 0
    outer loop
      vertex 51.66830825805664 3.6188888549804688 8.5
      vertex 52 5.5 0
      vertex 52 5.5 8.5
    endloop
  endfacet
  facet normal 0.9848076551253206 -0.1736487328101398 0
    outer loop
      vertex 52 5.5 0
      vertex 51.66830825805664 3.6188888549804688 8.5
      vertex 51.66830825805664 3.6188888549804688 0
    endloop
  endfacet
  facet normal 0 0 1
    outer loop
      vertex 41.5374755859375 108.2830810546875 8.5
      vertex 11.350098609924316 108.54369354248047 8.5
      vertex 19.5 29 8.5
    endloop
  endfacet
  facet normal 0 0 1
    outer loop
      vertex 19.5 29 8.5
      vertex 12.734073638916016 10.257081985473633 8.5
      vertex 13.25 8.5 8.5
    endloop
  endfacet
  facet normal 0 0 1
    outer loop
      vertex 9.537476539611816 108.2830810546875 8.5
      vertex 19.5 29 8.5
      vertex 11.350098609924316 108.54369354248047 8.5
    endloop
  endfacet
  facet normal 0 0 1
    outer loop
      vertex 19.5 29 8.5
      vertex 11.350098609924316 11.456303596496582 8.5
      vertex 12.734073638916016 10.257081985473633 8.5
    endloop
  endfacet
  facet normal 0 0 1
    outer loop
      vertex 7.871702194213867 109.04381561279297 8.5
      vertex 19.5 29 8.5
      vertex 9.537476539611816 108.2830810546875 8.5
    endloop
  endfacet
  facet normal 0 0 1
    outer loop
      vertex 19.5 29 8.5
      vertex 9.537476539611816 11.7169189453125 8.5
      vertex 11.350098609924316 11.456303596496582 8.5
    endloop
  endfacet
  facet normal 0 0 1
    outer loop
      vertex 0 114.5 8.5
      vertex 19.5 29 8.5
      vertex 7.871702194213867 109.04381561279297 8.5
    endloop
  endfacet
  facet normal 0 0 1
    outer loop
      vertex 19.5 29 8.5
      vertex 7.871702194213867 10.956185340881348 8.5
      vertex 9.537476539611816 11.7169189453125 8.5
    endloop
  endfacet
  facet normal 0 0 1
    outer loop
      vertex 0 114.5 8.5
      vertex 7.871702194213867 109.04381561279297 8.5
      vertex 6.881647109985352 110.58436584472656 8.5
    endloop
  endfacet
  facet normal 0 0 1
    outer loop
      vertex 0 5.5 8.5
      vertex 19.5 29 8.5
      vertex 0 114.5 8.5
    endloop
  endfacet
  facet normal 0 0 1
    outer loop
      vertex 52 114.5 8.5
      vertex 32.5 29 8.5
      vertex 52 5.5 8.5
    endloop
  endfacet
  facet normal 0 0 1
    outer loop
      vertex 52 5.5 8.5
      vertex 44.734073638916016 10.257081985473633 8.5
      vertex 45.25 8.5 8.5
    endloop
  endfacet
  facet normal 0 0 1
    outer loop
      vertex 32.5 29 8.5
      vertex 44.734073638916016 109.742919921875 8.5
      vertex 43.35009765625 108.54369354248047 8.5
    endloop
  endfacet
  facet normal 0 0 1
    outer loop
      vertex 52 5.5 8.5
      vertex 32.5 29 8.5
      vertex 44.734073638916016 10.257081985473633 8.5
    endloop
  endfacet
  facet normal 0 0 1
    outer loop
      vertex 32.5 29 8.5
      vertex 43.35009765625 108.54369354248047 8.5
      vertex 41.5374755859375 108.2830810546875 8.5
    endloop
  endfacet
  facet normal 0 0 1
    outer loop
      vertex 44.734073638916016 10.257081985473633 8.5
      vertex 32.5 29 8.5
      vertex 43.35009765625 11.456303596496582 8.5
    endloop
  endfacet
  facet normal 0 0 1
    outer loop
      vertex 11.350098609924316 108.54369354248047 8.5
      vertex 39.8717041015625 109.04381561279297 8.5
      vertex 12.734073638916016 109.742919921875 8.5
    endloop
  endfacet
  facet normal 0 0 1
    outer loop
      vertex 32.5 20 8.5
      vertex 43.35009765625 11.456303596496582 8.5
      vertex 32.5 29 8.5
    endloop
  endfacet
  facet normal 0 0 1
    outer loop
      vertex 12.734073638916016 109.742919921875 8.5
      vertex 38.88164520263672 110.58436584472656 8.5
      vertex 13.25 111.5 8.5
    endloop
  endfacet
  facet normal 0 0 1
    outer loop
      vertex 43.35009765625 11.456303596496582 8.5
      vertex 32.5 20 8.5
      vertex 41.5374755859375 11.7169189453125 8.5
    endloop
  endfacet
  facet normal 0 0 1
    outer loop
      vertex 44.734073638916016 113.257080078125 8.5
      vertex 52 114.5 8.5
      vertex 51.66830825805664 116.38111114501953 8.5
    endloop
  endfacet
  facet normal 0 0 1
    outer loop
      vertex 44.734073638916016 109.742919921875 8.5
      vertex 52 114.5 8.5
      vertex 45.25 111.5 8.5
    endloop
  endfacet
  facet normal 0 0 1
    outer loop
      vertex 44.734073638916016 113.257080078125 8.5
      vertex 51.66830825805664 116.38111114501953 8.5
      vertex 50.7132453918457 118.03533172607422 8.5
    endloop
  endfacet
  facet normal 0 0 1
    outer loop
      vertex 32.5 29 8.5
      vertex 52 114.5 8.5
      vertex 44.734073638916016 109.742919921875 8.5
    endloop
  endfacet
  facet normal 0 0 1
    outer loop
      vertex 44.734073638916016 113.257080078125 8.5
      vertex 50.7132453918457 118.03533172607422 8.5
      vertex 49.25 119.26313781738281 8.5
    endloop
  endfacet
  facet normal 0 0 1
    outer loop
      vertex 44.734073638916016 6.742917060852051 8.5
      vertex 52 5.5 8.5
      vertex 45.25 8.5 8.5
    endloop
  endfacet
  facet normal 0 0 1
    outer loop
      vertex 44.734073638916016 113.257080078125 8.5
      vertex 49.25 119.26313781738281 8.5
      vertex 47.45506286621094 119.91644287109375 8.5
    endloop
  endfacet
  facet normal 0 0 1
    outer loop
      vertex 52 5.5 8.5
      vertex 44.734073638916016 6.742917060852051 8.5
      vertex 51.66830825805664 3.6188888549804688 8.5
    endloop
  endfacet
  facet normal 0 0 1
    outer loop
      vertex 51.66830825805664 3.6188888549804688 8.5
      vertex 44.734073638916016 6.742917060852051 8.5
      vertex 50.7132453918457 1.9646673202514648 8.5
    endloop
  endfacet
  facet normal 0 0 1
    outer loop
      vertex 52 114.5 8.5
      vertex 44.734073638916016 113.257080078125 8.5
      vertex 45.25 111.5 8.5
    endloop
  endfacet
  facet normal 0 0 1
    outer loop
      vertex 47.45506286621094 119.91644287109375 8.5
      vertex 43.35009765625 114.45630645751953 8.5
      vertex 44.734073638916016 113.257080078125 8.5
    endloop
  endfacet
  facet normal 0 0 1
    outer loop
      vertex 47.45506286621094 119.91644287109375 8.5
      vertex 41.5374755859375 114.7169189453125 8.5
      vertex 43.35009765625 114.45630645751953 8.5
    endloop
  endfacet
  facet normal 0 0 1
    outer loop
      vertex 47.45506286621094 119.91644287109375 8.5
      vertex 39.8717041015625 113.95618438720703 8.5
      vertex 41.5374755859375 114.7169189453125 8.5
    endloop
  endfacet
  facet normal 0 0 1
    outer loop
      vertex 13.25 111.5 8.5
      vertex 38.88164520263672 110.58436584472656 8.5
      vertex 38.88164520263672 112.41563415527344 8.5
    endloop
  endfacet
  facet normal 0 0 1
    outer loop
      vertex 41.5374755859375 11.7169189453125 8.5
      vertex 32.5 20 8.5
      vertex 39.8717041015625 10.956185340881348 8.5
    endloop
  endfacet
  facet normal 0 0 1
    outer loop
      vertex 39.8717041015625 10.956185340881348 8.5
      vertex 32.5 20 8.5
      vertex 38.88164520263672 9.415630340576172 8.5
    endloop
  endfacet
  facet normal 0 0 1
    outer loop
      vertex 38.88164520263672 110.58436584472656 8.5
      vertex 12.734073638916016 109.742919921875 8.5
      vertex 39.8717041015625 109.04381561279297 8.5
    endloop
  endfacet
  facet normal 0 0 1
    outer loop
      vertex 39.8717041015625 109.04381561279297 8.5
      vertex 11.350098609924316 108.54369354248047 8.5
      vertex 41.5374755859375 108.2830810546875 8.5
    endloop
  endfacet
  facet normal 0 0 1
    outer loop
      vertex 41.5374755859375 108.2830810546875 8.5
      vertex 19.5 29 8.5
      vertex 32.5 29 8.5
    endloop
  endfacet
  facet normal 0 0 1
    outer loop
      vertex 12.734073638916016 113.257080078125 8.5
      vertex 38.88164520263672 112.41563415527344 8.5
      vertex 39.8717041015625 113.95618438720703 8.5
    endloop
  endfacet
  facet normal 0 0 1
    outer loop
      vertex 11.350098609924316 114.45630645751953 8.5
      vertex 39.8717041015625 113.95618438720703 8.5
      vertex 47.45506286621094 119.91644287109375 8.5
    endloop
  endfacet
  facet normal 0 0 1
    outer loop
      vertex 38.88164520263672 112.41563415527344 8.5
      vertex 12.734073638916016 113.257080078125 8.5
      vertex 13.25 111.5 8.5
    endloop
  endfacet
  facet normal 0 0 1
    outer loop
      vertex 39.8717041015625 113.95618438720703 8.5
      vertex 11.350098609924316 114.45630645751953 8.5
      vertex 12.734073638916016 113.257080078125 8.5
    endloop
  endfacet
  facet normal 0 0 1
    outer loop
      vertex 4.544934272766113 119.91644287109375 8.5
      vertex 11.350098609924316 114.45630645751953 8.5
      vertex 47.45506286621094 119.91644287109375 8.5
    endloop
  endfacet
  facet normal 0 0 1
    outer loop
      vertex 0 114.5 8.5
      vertex 6.881647109985352 110.58436584472656 8.5
      vertex 6.881647109985352 112.41563415527344 8.5
    endloop
  endfacet
  facet normal 0 0 1
    outer loop
      vertex 19.5 29 8.5
      vertex 0 5.5 8.5
      vertex 7.871702194213867 10.956185340881348 8.5
    endloop
  endfacet
  facet normal 0 0 1
    outer loop
      vertex 1.2867555618286133 118.03533172607422 8.5
      vertex 7.871702194213867 113.95618438720703 8.5
      vertex 2.75 119.26313781738281 8.5
    endloop
  endfacet
  facet normal 0 0 1
    outer loop
      vertex 2.75 119.26313781738281 8.5
      vertex 7.871702194213867 113.95618438720703 8.5
      vertex 4.544934272766113 119.91644287109375 8.5
    endloop
  endfacet
  facet normal 0 0 1
    outer loop
      vertex 9.537476539611816 114.7169189453125 8.5
      vertex 4.544934272766113 119.91644287109375 8.5
      vertex 7.871702194213867 113.95618438720703 8.5
    endloop
  endfacet
  facet normal 0 0 1
    outer loop
      vertex 11.350098609924316 114.45630645751953 8.5
      vertex 4.544934272766113 119.91644287109375 8.5
      vertex 9.537476539611816 114.7169189453125 8.5
    endloop
  endfacet
  facet normal 0 0 1
    outer loop
      vertex 50.7132453918457 1.9646673202514648 8.5
      vertex 44.734073638916016 6.742917060852051 8.5
      vertex 49.25 0.7368602752685547 8.5
    endloop
  endfacet
  facet normal 0 0 1
    outer loop
      vertex 49.25 0.7368602752685547 8.5
      vertex 44.734073638916016 6.742917060852051 8.5
      vertex 47.45506286621094 0.08355712890625 8.5
    endloop
  endfacet
  facet normal 0 0 1
    outer loop
      vertex 43.35009765625 5.543695449829102 8.5
      vertex 47.45506286621094 0.08355712890625 8.5
      vertex 44.734073638916016 6.742917060852051 8.5
    endloop
  endfacet
  facet normal 0 0 1
    outer loop
      vertex 41.5374755859375 5.283080101013184 8.5
      vertex 47.45506286621094 0.08355712890625 8.5
      vertex 43.35009765625 5.543695449829102 8.5
    endloop
  endfacet
  facet normal 0 0 1
    outer loop
      vertex 39.8717041015625 6.043813705444336 8.5
      vertex 47.45506286621094 0.08355712890625 8.5
      vertex 41.5374755859375 5.283080101013184 8.5
    endloop
  endfacet
  facet normal 0 0 1
    outer loop
      vertex 13.25 8.5 8.5
      vertex 38.88164520263672 9.415630340576172 8.5
      vertex 32.5 20 8.5
    endloop
  endfacet
  facet normal 0 0 1
    outer loop
      vertex 13.25 8.5 8.5
      vertex 32.5 20 8.5
      vertex 19.5 20 8.5
    endloop
  endfacet
  facet normal 0 0 1
    outer loop
      vertex 38.88164520263672 9.415630340576172 8.5
      vertex 13.25 8.5 8.5
      vertex 38.88164520263672 7.584368705749512 8.5
    endloop
  endfacet
  facet normal 0 0 1
    outer loop
      vertex 12.734073638916016 6.742917060852051 8.5
      vertex 38.88164520263672 7.584368705749512 8.5
      vertex 13.25 8.5 8.5
    endloop
  endfacet
  facet normal 0 0 1
    outer loop
      vertex 19.5 29 8.5
      vertex 13.25 8.5 8.5
      vertex 19.5 20 8.5
    endloop
  endfacet
  facet normal 0 0 1
    outer loop
      vertex 38.88164520263672 7.584368705749512 8.5
      vertex 12.734073638916016 6.742917060852051 8.5
      vertex 39.8717041015625 6.043813705444336 8.5
    endloop
  endfacet
  facet normal 0 0 1
    outer loop
      vertex 11.350098609924316 5.543695449829102 8.5
      vertex 39.8717041015625 6.043813705444336 8.5
      vertex 12.734073638916016 6.742917060852051 8.5
    endloop
  endfacet
  facet normal 0 0 1
    outer loop
      vertex 39.8717041015625 6.043813705444336 8.5
      vertex 11.350098609924316 5.543695449829102 8.5
      vertex 47.45506286621094 0.08355712890625 8.5
    endloop
  endfacet
  facet normal 0 0 1
    outer loop
      vertex 4.544934272766113 0.08355712890625 8.5
      vertex 11.350098609924316 5.543695449829102 8.5
      vertex 9.537476539611816 5.283080101013184 8.5
    endloop
  endfacet
  facet normal 0 0 1
    outer loop
      vertex 11.350098609924316 5.543695449829102 8.5
      vertex 4.544934272766113 0.08355712890625 8.5
      vertex 47.45506286621094 0.08355712890625 8.5
    endloop
  endfacet
  facet normal 0 0 1
    outer loop
      vertex 7.871702194213867 6.043813705444336 8.5
      vertex 4.544934272766113 0.08355712890625 8.5
      vertex 9.537476539611816 5.283080101013184 8.5
    endloop
  endfacet
  facet normal 0 0 1
    outer loop
      vertex 1.2867555618286133 1.9646673202514648 8.5
      vertex 7.871702194213867 6.043813705444336 8.5
      vertex 6.881647109985352 7.584368705749512 8.5
    endloop
  endfacet
  facet normal 0 0 1
    outer loop
      vertex 7.871702194213867 10.956185340881348 8.5
      vertex 0 5.5 8.5
      vertex 6.881647109985352 9.415630340576172 8.5
    endloop
  endfacet
  facet normal 0 0 1
    outer loop
      vertex 7.871702194213867 113.95618438720703 8.5
      vertex 1.2867555618286133 118.03533172607422 8.5
      vertex 6.881647109985352 112.41563415527344 8.5
    endloop
  endfacet
  facet normal 0 0 1
    outer loop
      vertex 6.881647109985352 9.415630340576172 8.5
      vertex 0 5.5 8.5
      vertex 6.881647109985352 7.584368705749512 8.5
    endloop
  endfacet
  facet normal 0 0 1
    outer loop
      vertex 0.33168983459472656 116.38111114501953 8.5
      vertex 6.881647109985352 112.41563415527344 8.5
      vertex 1.2867555618286133 118.03533172607422 8.5
    endloop
  endfacet
  facet normal 0 0 1
    outer loop
      vertex 0.33168983459472656 3.6188888549804688 8.5
      vertex 6.881647109985352 7.584368705749512 8.5
      vertex 0 5.5 8.5
    endloop
  endfacet
  facet normal 0 0 1
    outer loop
      vertex 6.881647109985352 112.41563415527344 8.5
      vertex 0.33168983459472656 116.38111114501953 8.5
      vertex 0 114.5 8.5
    endloop
  endfacet
  facet normal 0 0 1
    outer loop
      vertex 7.871702194213867 6.043813705444336 8.5
      vertex 2.75 0.7368602752685547 8.5
      vertex 4.544934272766113 0.08355712890625 8.5
    endloop
  endfacet
  facet normal 0 0 1
    outer loop
      vertex 7.871702194213867 6.043813705444336 8.5
      vertex 1.2867555618286133 1.9646673202514648 8.5
      vertex 2.75 0.7368602752685547 8.5
    endloop
  endfacet
  facet normal 0 0 1
    outer loop
      vertex 6.881647109985352 7.584368705749512 8.5
      vertex 0.33168983459472656 3.6188888549804688 8.5
      vertex 1.2867555618286133 1.9646673202514648 8.5
    endloop
  endfacet
  facet normal -0.9848078258864194 0.1736477643762337 0
    outer loop
      vertex 0 114.5 0
      vertex 0.33168983459472656 116.38111114501953 8.5
      vertex 0.33168983459472656 116.38111114501953 0
    endloop
  endfacet
  facet normal -0.9848078258864194 0.1736477643762337 0
    outer loop
      vertex 0.33168983459472656 116.38111114501953 8.5
      vertex 0 114.5 0
      vertex 0 114.5 8.5
    endloop
  endfacet
  facet normal 0 0 -1
    outer loop
      vertex 9.537476539611816 11.7169189453125 0
      vertex 19.5 20 0
      vertex 11.350098609924316 11.456303596496582 0
    endloop
  endfacet
  facet normal 0 0 -1
    outer loop
      vertex 19.5 29 0
      vertex 12.734073638916016 109.742919921875 0
      vertex 13.25 111.5 0
    endloop
  endfacet
  facet normal 0 0 -1
    outer loop
      vertex 19.5 20 0
      vertex 9.537476539611816 11.7169189453125 0
      vertex 19.5 29 0
    endloop
  endfacet
  facet normal 0 0 -1
    outer loop
      vertex 19.5 29 0
      vertex 11.350098609924316 108.54369354248047 0
      vertex 12.734073638916016 109.742919921875 0
    endloop
  endfacet
  facet normal 0 0 -1
    outer loop
      vertex 7.871702194213867 10.956185340881348 0
      vertex 19.5 29 0
      vertex 9.537476539611816 11.7169189453125 0
    endloop
  endfacet
  facet normal 0 0 -1
    outer loop
      vertex 19.5 29 0
      vertex 9.537476539611816 108.2830810546875 0
      vertex 11.350098609924316 108.54369354248047 0
    endloop
  endfacet
  facet normal 0 0 -1
    outer loop
      vertex 0 5.5 0
      vertex 19.5 29 0
      vertex 7.871702194213867 10.956185340881348 0
    endloop
  endfacet
  facet normal 0 0 -1
    outer loop
      vertex 19.5 29 0
      vertex 7.871702194213867 109.04381561279297 0
      vertex 9.537476539611816 108.2830810546875 0
    endloop
  endfacet
  facet normal 0 0 -1
    outer loop
      vertex 0 5.5 0
      vertex 7.871702194213867 10.956185340881348 0
      vertex 6.881647109985352 9.415630340576172 0
    endloop
  endfacet
  facet normal 0 0 -1
    outer loop
      vertex 0 114.5 0
      vertex 19.5 29 0
      vertex 0 5.5 0
    endloop
  endfacet
  facet normal 0 0 -1
    outer loop
      vertex 52 5.5 0
      vertex 32.5 29 0
      vertex 52 114.5 0
    endloop
  endfacet
  facet normal 0 0 -1
    outer loop
      vertex 52 114.5 0
      vertex 44.734073638916016 109.742919921875 0
      vertex 45.25 111.5 0
    endloop
  endfacet
  facet normal 0 0 -1
    outer loop
      vertex 32.5 29 0
      vertex 44.734073638916016 10.257081985473633 0
      vertex 43.35009765625 11.456303596496582 0
    endloop
  endfacet
  facet normal 0 0 -1
    outer loop
      vertex 43.35009765625 108.54369354248047 0
      vertex 52 114.5 0
      vertex 32.5 29 0
    endloop
  endfacet
  facet normal 0 0 -1
    outer loop
      vertex 32.5 20 0
      vertex 43.35009765625 11.456303596496582 0
      vertex 41.5374755859375 11.7169189453125 0
    endloop
  endfacet
  facet normal 0 0 -1
    outer loop
      vertex 52 114.5 0
      vertex 43.35009765625 108.54369354248047 0
      vertex 44.734073638916016 109.742919921875 0
    endloop
  endfacet
  facet normal 0 0 -1
    outer loop
      vertex 32.5 20 0
      vertex 41.5374755859375 11.7169189453125 0
      vertex 39.8717041015625 10.956185340881348 0
    endloop
  endfacet
  facet normal 0 0 -1
    outer loop
      vertex 43.35009765625 108.54369354248047 0
      vertex 32.5 29 0
      vertex 41.5374755859375 108.2830810546875 0
    endloop
  endfacet
  facet normal 0 0 -1
    outer loop
      vertex 32.5 20 0
      vertex 39.8717041015625 10.956185340881348 0
      vertex 38.88164520263672 9.415630340576172 0
    endloop
  endfacet
  facet normal 0 0 -1
    outer loop
      vertex 19.5 29 0
      vertex 41.5374755859375 108.2830810546875 0
      vertex 32.5 29 0
    endloop
  endfacet
  facet normal 0 0 -1
    outer loop
      vertex 44.734073638916016 6.742917060852051 0
      vertex 52 5.5 0
      vertex 51.66830825805664 3.6188888549804688 0
    endloop
  endfacet
  facet normal 0 0 -1
    outer loop
      vertex 44.734073638916016 10.257081985473633 0
      vertex 52 5.5 0
      vertex 45.25 8.5 0
    endloop
  endfacet
  facet normal 0 0 -1
    outer loop
      vertex 44.734073638916016 6.742917060852051 0
      vertex 51.66830825805664 3.6188888549804688 0
      vertex 50.7132453918457 1.9646673202514648 0
    endloop
  endfacet
  facet normal 0 0 -1
    outer loop
      vertex 32.5 29 0
      vertex 52 5.5 0
      vertex 44.734073638916016 10.257081985473633 0
    endloop
  endfacet
  facet normal 0 0 -1
    outer loop
      vertex 44.734073638916016 6.742917060852051 0
      vertex 50.7132453918457 1.9646673202514648 0
      vertex 49.25 0.7368602752685547 0
    endloop
  endfacet
  facet normal 0 0 -1
    outer loop
      vertex 44.734073638916016 113.257080078125 0
      vertex 52 114.5 0
      vertex 45.25 111.5 0
    endloop
  endfacet
  facet normal 0 0 -1
    outer loop
      vertex 44.734073638916016 6.742917060852051 0
      vertex 49.25 0.7368602752685547 0
      vertex 47.45506286621094 0.08355712890625 0
    endloop
  endfacet
  facet normal 0 0 -1
    outer loop
      vertex 52 114.5 0
      vertex 44.734073638916016 113.257080078125 0
      vertex 51.66830825805664 116.38111114501953 0
    endloop
  endfacet
  facet normal 0 0 -1
    outer loop
      vertex 51.66830825805664 116.38111114501953 0
      vertex 44.734073638916016 113.257080078125 0
      vertex 50.7132453918457 118.03533172607422 0
    endloop
  endfacet
  facet normal 0 0 -1
    outer loop
      vertex 52 5.5 0
      vertex 44.734073638916016 6.742917060852051 0
      vertex 45.25 8.5 0
    endloop
  endfacet
  facet normal 0 0 -1
    outer loop
      vertex 47.45506286621094 0.08355712890625 0
      vertex 43.35009765625 5.543695449829102 0
      vertex 44.734073638916016 6.742917060852051 0
    endloop
  endfacet
  facet normal 0 0 -1
    outer loop
      vertex 47.45506286621094 0.08355712890625 0
      vertex 41.5374755859375 5.283080101013184 0
      vertex 43.35009765625 5.543695449829102 0
    endloop
  endfacet
  facet normal 0 0 -1
    outer loop
      vertex 47.45506286621094 0.08355712890625 0
      vertex 39.8717041015625 6.043813705444336 0
      vertex 41.5374755859375 5.283080101013184 0
    endloop
  endfacet
  facet normal 0 0 -1
    outer loop
      vertex 13.25 8.5 0
      vertex 38.88164520263672 9.415630340576172 0
      vertex 38.88164520263672 7.584368705749512 0
    endloop
  endfacet
  facet normal 0 0 -1
    outer loop
      vertex 41.5374755859375 108.2830810546875 0
      vertex 19.5 29 0
      vertex 39.8717041015625 109.04381561279297 0
    endloop
  endfacet
  facet normal 0 0 -1
    outer loop
      vertex 43.35009765625 11.456303596496582 0
      vertex 32.5 20 0
      vertex 32.5 29 0
    endloop
  endfacet
  facet normal 0 0 -1
    outer loop
      vertex 38.88164520263672 9.415630340576172 0
      vertex 13.25 8.5 0
      vertex 32.5 20 0
    endloop
  endfacet
  facet normal 0 0 -1
    outer loop
      vertex 12.734073638916016 6.742917060852051 0
      vertex 38.88164520263672 7.584368705749512 0
      vertex 39.8717041015625 6.043813705444336 0
    endloop
  endfacet
  facet normal 0 0 -1
    outer loop
      vertex 11.350098609924316 5.543695449829102 0
      vertex 39.8717041015625 6.043813705444336 0
      vertex 47.45506286621094 0.08355712890625 0
    endloop
  endfacet
  facet normal 0 0 -1
    outer loop
      vertex 12.734073638916016 10.257081985473633 0
      vertex 19.5 20 0
      vertex 13.25 8.5 0
    endloop
  endfacet
  facet normal 0 0 -1
    outer loop
      vertex 32.5 20 0
      vertex 13.25 8.5 0
      vertex 19.5 20 0
    endloop
  endfacet
  facet normal 0 0 -1
    outer loop
      vertex 38.88164520263672 7.584368705749512 0
      vertex 12.734073638916016 6.742917060852051 0
      vertex 13.25 8.5 0
    endloop
  endfacet
  facet normal 0 0 -1
    outer loop
      vertex 39.8717041015625 6.043813705444336 0
      vertex 11.350098609924316 5.543695449829102 0
      vertex 12.734073638916016 6.742917060852051 0
    endloop
  endfacet
  facet normal 0 0 -1
    outer loop
      vertex 4.544934272766113 0.08355712890625 0
      vertex 11.350098609924316 5.543695449829102 0
      vertex 47.45506286621094 0.08355712890625 0
    endloop
  endfacet
  facet normal 0 0 -1
    outer loop
      vertex 0 5.5 0
      vertex 6.881647109985352 9.415630340576172 0
      vertex 6.881647109985352 7.584368705749512 0
    endloop
  endfacet
  facet normal 0 0 -1
    outer loop
      vertex 19.5 29 0
      vertex 0 114.5 0
      vertex 7.871702194213867 109.04381561279297 0
    endloop
  endfacet
  facet normal 0 0 -1
    outer loop
      vertex 1.2867555618286133 1.9646673202514648 0
      vertex 7.871702194213867 6.043813705444336 0
      vertex 2.75 0.7368602752685547 0
    endloop
  endfacet
  facet normal 0 0 -1
    outer loop
      vertex 2.75 0.7368602752685547 0
      vertex 7.871702194213867 6.043813705444336 0
      vertex 4.544934272766113 0.08355712890625 0
    endloop
  endfacet
  facet normal 0 0 -1
    outer loop
      vertex 9.537476539611816 5.283080101013184 0
      vertex 4.544934272766113 0.08355712890625 0
      vertex 7.871702194213867 6.043813705444336 0
    endloop
  endfacet
  facet normal 0 0 -1
    outer loop
      vertex 11.350098609924316 5.543695449829102 0
      vertex 4.544934272766113 0.08355712890625 0
      vertex 9.537476539611816 5.283080101013184 0
    endloop
  endfacet
  facet normal 0 0 -1
    outer loop
      vertex 50.7132453918457 118.03533172607422 0
      vertex 44.734073638916016 113.257080078125 0
      vertex 49.25 119.26313781738281 0
    endloop
  endfacet
  facet normal 0 0 -1
    outer loop
      vertex 49.25 119.26313781738281 0
      vertex 44.734073638916016 113.257080078125 0
      vertex 47.45506286621094 119.91644287109375 0
    endloop
  endfacet
  facet normal 0 0 -1
    outer loop
      vertex 43.35009765625 114.45630645751953 0
      vertex 47.45506286621094 119.91644287109375 0
      vertex 44.734073638916016 113.257080078125 0
    endloop
  endfacet
  facet normal 0 0 -1
    outer loop
      vertex 41.5374755859375 114.7169189453125 0
      vertex 47.45506286621094 119.91644287109375 0
      vertex 43.35009765625 114.45630645751953 0
    endloop
  endfacet
  facet normal 0 0 -1
    outer loop
      vertex 39.8717041015625 113.95618438720703 0
      vertex 47.45506286621094 119.91644287109375 0
      vertex 41.5374755859375 114.7169189453125 0
    endloop
  endfacet
  facet normal 0 0 -1
    outer loop
      vertex 13.25 111.5 0
      vertex 39.8717041015625 109.04381561279297 0
      vertex 19.5 29 0
    endloop
  endfacet
  facet normal 0 0 -1
    outer loop
      vertex 39.8717041015625 109.04381561279297 0
      vertex 13.25 111.5 0
      vertex 38.88164520263672 110.58436584472656 0
    endloop
  endfacet
  facet normal 0 0 -1
    outer loop
      vertex 11.350098609924316 11.456303596496582 0
      vertex 19.5 20 0
      vertex 12.734073638916016 10.257081985473633 0
    endloop
  endfacet
  facet normal 0 0 -1
    outer loop
      vertex 38.88164520263672 110.58436584472656 0
      vertex 13.25 111.5 0
      vertex 38.88164520263672 112.41563415527344 0
    endloop
  endfacet
  facet normal 0 0 -1
    outer loop
      vertex 12.734073638916016 113.257080078125 0
      vertex 38.88164520263672 112.41563415527344 0
      vertex 13.25 111.5 0
    endloop
  endfacet
  facet normal 0 0 -1
    outer loop
      vertex 38.88164520263672 112.41563415527344 0
      vertex 12.734073638916016 113.257080078125 0
      vertex 39.8717041015625 113.95618438720703 0
    endloop
  endfacet
  facet normal 0 0 -1
    outer loop
      vertex 11.350098609924316 114.45630645751953 0
      vertex 39.8717041015625 113.95618438720703 0
      vertex 12.734073638916016 113.257080078125 0
    endloop
  endfacet
  facet normal 0 0 -1
    outer loop
      vertex 39.8717041015625 113.95618438720703 0
      vertex 11.350098609924316 114.45630645751953 0
      vertex 47.45506286621094 119.91644287109375 0
    endloop
  endfacet
  facet normal 0 0 -1
    outer loop
      vertex 4.544934272766113 119.91644287109375 0
      vertex 11.350098609924316 114.45630645751953 0
      vertex 9.537476539611816 114.7169189453125 0
    endloop
  endfacet
  facet normal 0 0 -1
    outer loop
      vertex 11.350098609924316 114.45630645751953 0
      vertex 4.544934272766113 119.91644287109375 0
      vertex 47.45506286621094 119.91644287109375 0
    endloop
  endfacet
  facet normal 0 0 -1
    outer loop
      vertex 7.871702194213867 113.95618438720703 0
      vertex 4.544934272766113 119.91644287109375 0
      vertex 9.537476539611816 114.7169189453125 0
    endloop
  endfacet
  facet normal 0 0 -1
    outer loop
      vertex 1.2867555618286133 118.03533172607422 0
      vertex 7.871702194213867 113.95618438720703 0
      vertex 6.881647109985352 112.41563415527344 0
    endloop
  endfacet
  facet normal 0 0 -1
    outer loop
      vertex 7.871702194213867 109.04381561279297 0
      vertex 0 114.5 0
      vertex 6.881647109985352 110.58436584472656 0
    endloop
  endfacet
  facet normal 0 0 -1
    outer loop
      vertex 7.871702194213867 6.043813705444336 0
      vertex 1.2867555618286133 1.9646673202514648 0
      vertex 6.881647109985352 7.584368705749512 0
    endloop
  endfacet
  facet normal 0 0 -1
    outer loop
      vertex 6.881647109985352 110.58436584472656 0
      vertex 0 114.5 0
      vertex 6.881647109985352 112.41563415527344 0
    endloop
  endfacet
  facet normal 0 0 -1
    outer loop
      vertex 0.33168983459472656 3.6188888549804688 0
      vertex 6.881647109985352 7.584368705749512 0
      vertex 1.2867555618286133 1.9646673202514648 0
    endloop
  endfacet
  facet normal 0 0 -1
    outer loop
      vertex 0.33168983459472656 116.38111114501953 0
      vertex 6.881647109985352 112.41563415527344 0
      vertex 0 114.5 0
    endloop
  endfacet
  facet normal 0 0 -1
    outer loop
      vertex 6.881647109985352 7.584368705749512 0
      vertex 0.33168983459472656 3.6188888549804688 0
      vertex 0 5.5 0
    endloop
  endfacet
  facet normal 0 0 -1
    outer loop
      vertex 7.871702194213867 113.95618438720703 0
      vertex 2.75 119.26313781738281 0
      vertex 4.544934272766113 119.91644287109375 0
    endloop
  endfacet
  facet normal 0 0 -1
    outer loop
      vertex 7.871702194213867 113.95618438720703 0
      vertex 1.2867555618286133 118.03533172607422 0
      vertex 2.75 119.26313781738281 0
    endloop
  endfacet
  facet normal 0 0 -1
    outer loop
      vertex 6.881647109985352 112.41563415527344 0
      vertex 0.33168983459472656 116.38111114501953 0
      vertex 1.2867555618286133 118.03533172607422 0
    endloop
  endfacet
  facet normal -1 0 0
    outer loop
      vertex 32.5 20 0
      vertex 32.5 29 8.5
      vertex 32.5 29 0
    endloop
  endfacet
  facet normal -1 0 0
    outer loop
      vertex 32.5 29 8.5
      vertex 32.5 20 0
      vertex 32.5 20 8.5
    endloop
  endfacet
  facet normal 1 0 0
    outer loop
      vertex 19.5 20 8.5
      vertex 19.5 29 0
      vertex 19.5 29 8.5
    endloop
  endfacet
  facet normal 1 0 0
    outer loop
      vertex 19.5 29 0
      vertex 19.5 20 8.5
      vertex 19.5 20 0
    endloop
  endfacet
  facet normal 0 -1 0
    outer loop
      vertex 19.5 29 0
      vertex 32.5 29 8.5
      vertex 19.5 29 8.5
    endloop
  endfacet
  facet normal 0 -1 0
    outer loop
      vertex 32.5 29 8.5
      vertex 19.5 29 0
      vertex 32.5 29 0
    endloop
  endfacet
  facet normal 0 1 0
    outer loop
      vertex 32.5 20 0
      vertex 19.5 20 8.5
      vertex 32.5 20 8.5
    endloop
  endfacet
  facet normal 0 1 0
    outer loop
      vertex 19.5 20 8.5
      vertex 32.5 20 0
      vertex 19.5 20 0
    endloop
  endfacet
endsolid OpenSCAD_Model
