solid OpenSCAD_Model
  facet normal 0.8314696266147378 0 0.555570211599892
    outer loop
      vertex -9.464465141296387 9 23.535533905029297
      vertex -8.38060188293457 19 21.91341781616211
      vertex -9.464465141296387 19 23.535533905029297
    endloop
  endfacet
  facet normal 0.8314696266147378 0 0.555570211599892
    outer loop
      vertex -8.38060188293457 19 21.91341781616211
      vertex -9.464465141296387 9 23.535533905029297
      vertex -8.38060188293457 9 21.91341781616211
    endloop
  endfacet
  facet normal -0.5555696478325582 0 0.8314700033117293
    outer loop
      vertex -16.535533905029297 19 23.535533905029297
      vertex -14.913416862487793 9 24.619396209716797
      vertex -14.913416862487793 19 24.619396209716797
    endloop
  endfacet
  facet normal -0.5555696478325582 0 0.8314700033117293
    outer loop
      vertex -14.913416862487793 9 24.619396209716797
      vertex -16.535533905029297 19 23.535533905029297
      vertex -16.535533905029297 9 23.535533905029297
    endloop
  endfacet
  facet normal -0.8314698524282215 0 -0.5555698736459633
    outer loop
      vertex -16.535533905029297 9 16.464466094970703
      vertex -17.619396209716797 19 18.08658218383789
      vertex -16.535533905029297 19 16.464466094970703
    endloop
  endfacet
  facet normal -0.8314698524282215 0 -0.5555698736459633
    outer loop
      vertex -17.619396209716797 19 18.08658218383789
      vertex -16.535533905029297 9 16.464466094970703
      vertex -17.619396209716797 9 18.08658218383789
    endloop
  endfacet
  facet normal -0.19509106773220689 0 0.9807851320707851
    outer loop
      vertex -14.913416862487793 19 24.619396209716797
      vertex -13 9 25
      vertex -13 19 25
    endloop
  endfacet
  facet normal -0.19509106773220689 0 0.9807851320707851
    outer loop
      vertex -13 9 25
      vertex -14.913416862487793 19 24.619396209716797
      vertex -14.913416862487793 9 24.619396209716797
    endloop
  endfacet
  facet normal 0.98078533774622 0 -0.19509003373323033
    outer loop
      vertex -8 9 20
      vertex -8.38060188293457 19 18.08658218383789
      vertex -8 19 20
    endloop
  endfacet
  facet normal 0.98078533774622 0 -0.19509003373323033
    outer loop
      vertex -8.38060188293457 19 18.08658218383789
      vertex -8 9 20
      vertex -8.38060188293457 9 18.08658218383789
    endloop
  endfacet
  facet normal -0.5555703237401106 0 -0.8314695516850323
    outer loop
      vertex -16.535533905029297 9 16.464466094970703
      vertex -14.913416862487793 19 15.38060188293457
      vertex -14.913416862487793 9 15.38060188293457
    endloop
  endfacet
  facet normal -0.5555703237401106 0 -0.8314695516850323
    outer loop
      vertex -14.913416862487793 19 15.38060188293457
      vertex -16.535533905029297 9 16.464466094970703
      vertex -16.535533905029297 19 16.464466094970703
    endloop
  endfacet
  facet normal 0.8314696266147378 0 -0.555570211599892
    outer loop
      vertex -8.38060188293457 9 18.08658218383789
      vertex -9.464465141296387 19 16.464466094970703
      vertex -8.38060188293457 19 18.08658218383789
    endloop
  endfacet
  facet normal 0.8314696266147378 0 -0.555570211599892
    outer loop
      vertex -9.464465141296387 19 16.464466094970703
      vertex -8.38060188293457 9 18.08658218383789
      vertex -9.464465141296387 9 16.464466094970703
    endloop
  endfacet
  facet normal 0 1 0
    outer loop
      vertex -13.489545822143555 19 22.144840240478516
      vertex -13 19 25
      vertex -11.08658218383789 19 24.619396209716797
    endloop
  endfacet
  facet normal 0 1 0
    outer loop
      vertex -11.628321647644043 19 21.720027923583984
      vertex -11.08658218383789 19 24.619396209716797
      vertex -9.464465141296387 19 23.535533905029297
    endloop
  endfacet
  facet normal 0 1 0
    outer loop
      vertex -13 19 25
      vertex -13.489545822143555 19 22.144840240478516
      vertex -14.913416862487793 19 24.619396209716797
    endloop
  endfacet
  facet normal 0 1 0
    outer loop
      vertex -14.913416862487793 19 24.619396209716797
      vertex -13.489545822143555 19 22.144840240478516
      vertex -16.535533905029297 19 23.535533905029297
    endloop
  endfacet
  facet normal 0 1 0
    outer loop
      vertex -11.628321647644043 19 21.720027923583984
      vertex -9.464465141296387 19 23.535533905029297
      vertex -8.38060188293457 19 21.91341781616211
    endloop
  endfacet
  facet normal 0 1 0
    outer loop
      vertex -11.08658218383789 19 24.619396209716797
      vertex -11.628321647644043 19 21.720027923583984
      vertex -13.489545822143555 19 22.144840240478516
    endloop
  endfacet
  facet normal 0 1 0
    outer loop
      vertex -10.799999237060547 19 20
      vertex -8.38060188293457 19 21.91341781616211
      vertex -8 19 20
    endloop
  endfacet
  facet normal 0 1 0
    outer loop
      vertex -8.38060188293457 19 21.91341781616211
      vertex -10.799999237060547 19 20
      vertex -11.628321647644043 19 21.720027923583984
    endloop
  endfacet
  facet normal 0 1 0
    outer loop
      vertex -8.38060188293457 19 18.08658218383789
      vertex -10.799999237060547 19 20
      vertex -8 19 20
    endloop
  endfacet
  facet normal 0 1 0
    outer loop
      vertex -10.799999237060547 19 20
      vertex -8.38060188293457 19 18.08658218383789
      vertex -11.628321647644043 19 18.279970169067383
    endloop
  endfacet
  facet normal 0 1 0
    outer loop
      vertex -9.464465141296387 19 16.464466094970703
      vertex -11.628321647644043 19 18.279970169067383
      vertex -8.38060188293457 19 18.08658218383789
    endloop
  endfacet
  facet normal 0 1 0
    outer loop
      vertex -11.08658218383789 19 15.38060188293457
      vertex -11.628321647644043 19 18.279970169067383
      vertex -9.464465141296387 19 16.464466094970703
    endloop
  endfacet
  facet normal 0 1 0
    outer loop
      vertex -14.982131004333496 19 20.954544067382812
      vertex -16.535533905029297 19 23.535533905029297
      vertex -13.489545822143555 19 22.144840240478516
    endloop
  endfacet
  facet normal 0 1 0
    outer loop
      vertex -16.535533905029297 19 23.535533905029297
      vertex -14.982131004333496 19 20.954544067382812
      vertex -17.619396209716797 19 21.91341781616211
    endloop
  endfacet
  facet normal 0 1 0
    outer loop
      vertex -14.982131004333496 19 20.954544067382812
      vertex -18 19 20
      vertex -17.619396209716797 19 21.91341781616211
    endloop
  endfacet
  facet normal 0 1 0
    outer loop
      vertex -14.982131004333496 19 19.045455932617188
      vertex -18 19 20
      vertex -14.982131004333496 19 20.954544067382812
    endloop
  endfacet
  facet normal 0 1 0
    outer loop
      vertex -14.982131004333496 19 19.045455932617188
      vertex -17.619396209716797 19 18.08658218383789
      vertex -18 19 20
    endloop
  endfacet
  facet normal 0 1 0
    outer loop
      vertex -16.535533905029297 19 16.464466094970703
      vertex -14.982131004333496 19 19.045455932617188
      vertex -13.489545822143555 19 17.85515785217285
    endloop
  endfacet
  facet normal 0 1 0
    outer loop
      vertex -11.628321647644043 19 18.279970169067383
      vertex -11.08658218383789 19 15.38060188293457
      vertex -13.489545822143555 19 17.85515785217285
    endloop
  endfacet
  facet normal 0 1 0
    outer loop
      vertex -14.982131004333496 19 19.045455932617188
      vertex -16.535533905029297 19 16.464466094970703
      vertex -17.619396209716797 19 18.08658218383789
    endloop
  endfacet
  facet normal 0 1 0
    outer loop
      vertex -13 19 15
      vertex -13.489545822143555 19 17.85515785217285
      vertex -11.08658218383789 19 15.38060188293457
    endloop
  endfacet
  facet normal 0 1 0
    outer loop
      vertex -13.489545822143555 19 17.85515785217285
      vertex -14.913416862487793 19 15.38060188293457
      vertex -16.535533905029297 19 16.464466094970703
    endloop
  endfacet
  facet normal 0 1 0
    outer loop
      vertex -13.489545822143555 19 17.85515785217285
      vertex -13 19 15
      vertex -14.913416862487793 19 15.38060188293457
    endloop
  endfacet
  facet normal 0.19509003373323033 0 -0.98078533774622
    outer loop
      vertex -13 9 15
      vertex -11.08658218383789 19 15.38060188293457
      vertex -11.08658218383789 9 15.38060188293457
    endloop
  endfacet
  facet normal 0.19509003373323033 0 -0.98078533774622
    outer loop
      vertex -11.08658218383789 19 15.38060188293457
      vertex -13 9 15
      vertex -13 19 15
    endloop
  endfacet
  facet normal 0.1950909741969338 0 0.9807851506761771
    outer loop
      vertex -13 19 25
      vertex -11.08658218383789 9 24.619396209716797
      vertex -11.08658218383789 19 24.619396209716797
    endloop
  endfacet
  facet normal 0.1950909741969338 0 0.9807851506761771
    outer loop
      vertex -11.08658218383789 9 24.619396209716797
      vertex -13 19 25
      vertex -13 9 25
    endloop
  endfacet
  facet normal -0.9807851506761771 0 -0.1950909741969338
    outer loop
      vertex -17.619396209716797 9 18.08658218383789
      vertex -18 19 20
      vertex -17.619396209716797 19 18.08658218383789
    endloop
  endfacet
  facet normal -0.9807851506761771 0 -0.1950909741969338
    outer loop
      vertex -18 19 20
      vertex -17.619396209716797 9 18.08658218383789
      vertex -18 9 20
    endloop
  endfacet
  facet normal 0.5555703237401106 0 -0.8314695516850323
    outer loop
      vertex -11.08658218383789 9 15.38060188293457
      vertex -9.464465141296387 19 16.464466094970703
      vertex -9.464465141296387 9 16.464466094970703
    endloop
  endfacet
  facet normal 0.5555703237401106 0 -0.8314695516850323
    outer loop
      vertex -9.464465141296387 19 16.464466094970703
      vertex -11.08658218383789 9 15.38060188293457
      vertex -11.08658218383789 19 15.38060188293457
    endloop
  endfacet
  facet normal 0.98078533774622 0 0.19509003373323033
    outer loop
      vertex -8.38060188293457 9 21.91341781616211
      vertex -8 19 20
      vertex -8.38060188293457 19 21.91341781616211
    endloop
  endfacet
  facet normal 0.98078533774622 0 0.19509003373323033
    outer loop
      vertex -8 19 20
      vertex -8.38060188293457 9 21.91341781616211
      vertex -8 9 20
    endloop
  endfacet
  facet normal -0.19509012726808822 0 -0.980785319141004
    outer loop
      vertex -14.913416862487793 9 15.38060188293457
      vertex -13 19 15
      vertex -13 9 15
    endloop
  endfacet
  facet normal -0.19509012726808822 0 -0.980785319141004
    outer loop
      vertex -13 19 15
      vertex -14.913416862487793 9 15.38060188293457
      vertex -14.913416862487793 19 15.38060188293457
    endloop
  endfacet
  facet normal 0.5555696478325582 0 0.8314700033117293
    outer loop
      vertex -11.08658218383789 19 24.619396209716797
      vertex -9.464465141296387 9 23.535533905029297
      vertex -9.464465141296387 19 23.535533905029297
    endloop
  endfacet
  facet normal 0.5555696478325582 0 0.8314700033117293
    outer loop
      vertex -9.464465141296387 9 23.535533905029297
      vertex -11.08658218383789 19 24.619396209716797
      vertex -11.08658218383789 9 24.619396209716797
    endloop
  endfacet
  facet normal -0.8314698524282215 0 0.5555698736459633
    outer loop
      vertex -17.619396209716797 9 21.91341781616211
      vertex -16.535533905029297 19 23.535533905029297
      vertex -17.619396209716797 19 21.91341781616211
    endloop
  endfacet
  facet normal -0.8314698524282215 0 0.5555698736459633
    outer loop
      vertex -16.535533905029297 19 23.535533905029297
      vertex -17.619396209716797 9 21.91341781616211
      vertex -16.535533905029297 9 23.535533905029297
    endloop
  endfacet
  facet normal -0.9807851506761771 0 0.1950909741969338
    outer loop
      vertex -18 9 20
      vertex -17.619396209716797 19 21.91341781616211
      vertex -18 19 20
    endloop
  endfacet
  facet normal -0.9807851506761771 0 0.1950909741969338
    outer loop
      vertex -17.619396209716797 19 21.91341781616211
      vertex -18 9 20
      vertex -17.619396209716797 9 21.91341781616211
    endloop
  endfacet
  facet normal 0 1 0
    outer loop
      vertex 94.68060302734375 9 21.91341781616211
      vertex 94.68060302734375 9 64.38658142089844
      vertex 95.76446533203125 9 23.535533905029297
    endloop
  endfacet
  facet normal 0 1 0
    outer loop
      vertex -8.38060188293457 9 64.38658142089844
      vertex -11.08658218383789 9 24.619396209716797
      vertex -13 9 25
    endloop
  endfacet
  facet normal 0 1 0
    outer loop
      vertex 94.68060302734375 9 64.38658142089844
      vertex 94.68060302734375 9 21.91341781616211
      vertex -8.38060188293457 9 64.38658142089844
    endloop
  endfacet
  facet normal 0 1 0
    outer loop
      vertex -8.38060188293457 9 64.38658142089844
      vertex -9.464465141296387 9 23.535533905029297
      vertex -11.08658218383789 9 24.619396209716797
    endloop
  endfacet
  facet normal 0 1 0
    outer loop
      vertex -8.38060188293457 9 21.91341781616211
      vertex -8.38060188293457 9 64.38658142089844
      vertex 94.68060302734375 9 21.91341781616211
    endloop
  endfacet
  facet normal 0 1 0
    outer loop
      vertex -8.38060188293457 9 64.38658142089844
      vertex -8.38060188293457 9 21.91341781616211
      vertex -9.464465141296387 9 23.535533905029297
    endloop
  endfacet
  facet normal 0 1 0
    outer loop
      vertex 94.30000305175781 9 20
      vertex -8.38060188293457 9 21.91341781616211
      vertex 94.68060302734375 9 21.91341781616211
    endloop
  endfacet
  facet normal 0 1 0
    outer loop
      vertex 94.30000305175781 9 20
      vertex -8 9 20
      vertex -8.38060188293457 9 21.91341781616211
    endloop
  endfacet
  facet normal 0 1 0
    outer loop
      vertex 94.68060302734375 9 18.08658218383789
      vertex -8 9 20
      vertex 94.30000305175781 9 20
    endloop
  endfacet
  facet normal 0 1 0
    outer loop
      vertex 94.68060302734375 9 18.08658218383789
      vertex -8.38060188293457 9 18.08658218383789
      vertex -8 9 20
    endloop
  endfacet
  facet normal 0 1 0
    outer loop
      vertex 95.76446533203125 9 16.464466094970703
      vertex -8.38060188293457 9 18.08658218383789
      vertex 94.68060302734375 9 18.08658218383789
    endloop
  endfacet
  facet normal 0 1 0
    outer loop
      vertex 95.76446533203125 9 16.464466094970703
      vertex -9.464465141296387 9 16.464466094970703
      vertex -8.38060188293457 9 18.08658218383789
    endloop
  endfacet
  facet normal 0 1 0
    outer loop
      vertex 107.30000305175781 9 0
      vertex 95.76446533203125 9 16.464466094970703
      vertex 97.38658142089844 9 15.38060188293457
    endloop
  endfacet
  facet normal 0 1 0
    outer loop
      vertex 95.76446533203125 9 16.464466094970703
      vertex 107.30000305175781 9 0
      vertex -9.464465141296387 9 16.464466094970703
    endloop
  endfacet
  facet normal 0 1 0
    outer loop
      vertex 107.30000305175781 9 0
      vertex 97.38658142089844 9 15.38060188293457
      vertex 99.30000305175781 9 15
    endloop
  endfacet
  facet normal 0 1 0
    outer loop
      vertex -21 9 0
      vertex -9.464465141296387 9 16.464466094970703
      vertex 107.30000305175781 9 0
    endloop
  endfacet
  facet normal 0 1 0
    outer loop
      vertex 107.30000305175781 9 100
      vertex 95.76446533203125 9 69.83553314208984
      vertex -21 9 100
    endloop
  endfacet
  facet normal 0 1 0
    outer loop
      vertex -21 9 100
      vertex -11.08658218383789 9 70.91939544677734
      vertex -13 9 71.30000305175781
    endloop
  endfacet
  facet normal 0 1 0
    outer loop
      vertex -9.464465141296387 9 69.83553314208984
      vertex -21 9 100
      vertex 95.76446533203125 9 69.83553314208984
    endloop
  endfacet
  facet normal 0 1 0
    outer loop
      vertex -21 9 100
      vertex -9.464465141296387 9 69.83553314208984
      vertex -11.08658218383789 9 70.91939544677734
    endloop
  endfacet
  facet normal 0 1 0
    outer loop
      vertex 94.68060302734375 9 68.21341705322266
      vertex -9.464465141296387 9 69.83553314208984
      vertex 95.76446533203125 9 69.83553314208984
    endloop
  endfacet
  facet normal 0 1 0
    outer loop
      vertex 94.68060302734375 9 68.21341705322266
      vertex -8.38060188293457 9 68.21341705322266
      vertex -9.464465141296387 9 69.83553314208984
    endloop
  endfacet
  facet normal 0 1 0
    outer loop
      vertex 94.30000305175781 9 66.30000305175781
      vertex -8.38060188293457 9 68.21341705322266
      vertex 94.68060302734375 9 68.21341705322266
    endloop
  endfacet
  facet normal 0 1 0
    outer loop
      vertex 94.30000305175781 9 66.30000305175781
      vertex -8 9 66.30000305175781
      vertex -8.38060188293457 9 68.21341705322266
    endloop
  endfacet
  facet normal 0 1 0
    outer loop
      vertex 94.68060302734375 9 64.38658142089844
      vertex -8 9 66.30000305175781
      vertex 94.30000305175781 9 66.30000305175781
    endloop
  endfacet
  facet normal 0 1 0
    outer loop
      vertex 94.68060302734375 9 64.38658142089844
      vertex -8.38060188293457 9 64.38658142089844
      vertex -8 9 66.30000305175781
    endloop
  endfacet
  facet normal 0 1 0
    outer loop
      vertex 97.38658142089844 9 61.68060302734375
      vertex 97.38658142089844 9 24.619396209716797
      vertex 95.76446533203125 9 62.76446533203125
    endloop
  endfacet
  facet normal 0 1 0
    outer loop
      vertex 95.76446533203125 9 23.535533905029297
      vertex 95.76446533203125 9 62.76446533203125
      vertex 97.38658142089844 9 24.619396209716797
    endloop
  endfacet
  facet normal 0 1 0
    outer loop
      vertex 97.38658142089844 9 24.619396209716797
      vertex 97.38658142089844 9 61.68060302734375
      vertex 99.30000305175781 9 25
    endloop
  endfacet
  facet normal 0 1 0
    outer loop
      vertex 95.76446533203125 9 62.76446533203125
      vertex 95.76446533203125 9 23.535533905029297
      vertex 94.68060302734375 9 64.38658142089844
    endloop
  endfacet
  facet normal 0 1 0
    outer loop
      vertex 99.30000305175781 9 25
      vertex 97.38658142089844 9 61.68060302734375
      vertex 99.30000305175781 9 61.29999923706055
    endloop
  endfacet
  facet normal 0 1 0
    outer loop
      vertex -8.38060188293457 9 64.38658142089844
      vertex -13 9 25
      vertex -9.464465141296387 9 62.76446533203125
    endloop
  endfacet
  facet normal 0 1 0
    outer loop
      vertex 97.38658142089844 9 70.91939544677734
      vertex 107.30000305175781 9 100
      vertex 99.30000305175781 9 71.30000305175781
    endloop
  endfacet
  facet normal 0 1 0
    outer loop
      vertex 107.30000305175781 9 100
      vertex 101.21341705322266 9 70.91939544677734
      vertex 99.30000305175781 9 71.30000305175781
    endloop
  endfacet
  facet normal 0 1 0
    outer loop
      vertex 107.30000305175781 9 100
      vertex 102.83553314208984 9 69.83553314208984
      vertex 101.21341705322266 9 70.91939544677734
    endloop
  endfacet
  facet normal 0 1 0
    outer loop
      vertex 107.30000305175781 9 100
      vertex 103.91939544677734 9 68.21341705322266
      vertex 102.83553314208984 9 69.83553314208984
    endloop
  endfacet
  facet normal 0 1 0
    outer loop
      vertex 107.30000305175781 9 100
      vertex 104.30000305175781 9 66.30000305175781
      vertex 103.91939544677734 9 68.21341705322266
    endloop
  endfacet
  facet normal 0 1 0
    outer loop
      vertex -9.464465141296387 9 62.76446533203125
      vertex -13 9 25
      vertex -11.08658218383789 9 61.68060302734375
    endloop
  endfacet
  facet normal 0 1 0
    outer loop
      vertex 101.21341705322266 9 61.68060302734375
      vertex 99.30000305175781 9 25
      vertex 99.30000305175781 9 61.29999923706055
    endloop
  endfacet
  facet normal 0 1 0
    outer loop
      vertex 101.21341705322266 9 24.619396209716797
      vertex 101.21341705322266 9 61.68060302734375
      vertex 102.83553314208984 9 62.76446533203125
    endloop
  endfacet
  facet normal 0 1 0
    outer loop
      vertex 102.83553314208984 9 23.535533905029297
      vertex 102.83553314208984 9 62.76446533203125
      vertex 103.91939544677734 9 64.38658142089844
    endloop
  endfacet
  facet normal 0 1 0
    outer loop
      vertex 103.91939544677734 9 21.91341781616211
      vertex 103.91939544677734 9 64.38658142089844
      vertex 104.30000305175781 9 66.30000305175781
    endloop
  endfacet
  facet normal 0 1 0
    outer loop
      vertex 101.21341705322266 9 61.68060302734375
      vertex 101.21341705322266 9 24.619396209716797
      vertex 99.30000305175781 9 25
    endloop
  endfacet
  facet normal 0 1 0
    outer loop
      vertex 107.30000305175781 9 0
      vertex 104.30000305175781 9 66.30000305175781
      vertex 107.30000305175781 9 100
    endloop
  endfacet
  facet normal 0 1 0
    outer loop
      vertex 102.83553314208984 9 62.76446533203125
      vertex 102.83553314208984 9 23.535533905029297
      vertex 101.21341705322266 9 24.619396209716797
    endloop
  endfacet
  facet normal 0 1 0
    outer loop
      vertex 103.91939544677734 9 64.38658142089844
      vertex 103.91939544677734 9 21.91341781616211
      vertex 102.83553314208984 9 23.535533905029297
    endloop
  endfacet
  facet normal 0 1 0
    outer loop
      vertex 104.30000305175781 9 66.30000305175781
      vertex 104.30000305175781 9 20
      vertex 103.91939544677734 9 21.91341781616211
    endloop
  endfacet
  facet normal 0 1 0
    outer loop
      vertex -9.464465141296387 9 16.464466094970703
      vertex -21 9 0
      vertex -11.08658218383789 9 15.38060188293457
    endloop
  endfacet
  facet normal 0 1 0
    outer loop
      vertex 101.21341705322266 9 15.38060188293457
      vertex 107.30000305175781 9 0
      vertex 99.30000305175781 9 15
    endloop
  endfacet
  facet normal 0 1 0
    outer loop
      vertex 102.83553314208984 9 16.464466094970703
      vertex 107.30000305175781 9 0
      vertex 101.21341705322266 9 15.38060188293457
    endloop
  endfacet
  facet normal 0 1 0
    outer loop
      vertex 103.91939544677734 9 18.08658218383789
      vertex 107.30000305175781 9 0
      vertex 102.83553314208984 9 16.464466094970703
    endloop
  endfacet
  facet normal 0 1 0
    outer loop
      vertex 104.30000305175781 9 20
      vertex 107.30000305175781 9 0
      vertex 103.91939544677734 9 18.08658218383789
    endloop
  endfacet
  facet normal 0 1 0
    outer loop
      vertex 104.30000305175781 9 66.30000305175781
      vertex 107.30000305175781 9 0
      vertex 104.30000305175781 9 20
    endloop
  endfacet
  facet normal 0 1 0
    outer loop
      vertex 95.76446533203125 9 69.83553314208984
      vertex 107.30000305175781 9 100
      vertex 97.38658142089844 9 70.91939544677734
    endloop
  endfacet
  facet normal 0 1 0
    outer loop
      vertex -14.913416862487793 9 70.91939544677734
      vertex -21 9 100
      vertex -13 9 71.30000305175781
    endloop
  endfacet
  facet normal 0 1 0
    outer loop
      vertex -16.535533905029297 9 69.83553314208984
      vertex -21 9 100
      vertex -14.913416862487793 9 70.91939544677734
    endloop
  endfacet
  facet normal 0 1 0
    outer loop
      vertex -17.619396209716797 9 68.21341705322266
      vertex -21 9 100
      vertex -16.535533905029297 9 69.83553314208984
    endloop
  endfacet
  facet normal 0 1 0
    outer loop
      vertex -18 9 66.30000305175781
      vertex -21 9 100
      vertex -17.619396209716797 9 68.21341705322266
    endloop
  endfacet
  facet normal 0 1 0
    outer loop
      vertex -11.08658218383789 9 61.68060302734375
      vertex -13 9 25
      vertex -13 9 61.29999923706055
    endloop
  endfacet
  facet normal 0 1 0
    outer loop
      vertex -13 9 61.29999923706055
      vertex -13 9 25
      vertex -14.913416862487793 9 61.68060302734375
    endloop
  endfacet
  facet normal 0 1 0
    outer loop
      vertex -14.913416862487793 9 24.619396209716797
      vertex -14.913416862487793 9 61.68060302734375
      vertex -13 9 25
    endloop
  endfacet
  facet normal 0 1 0
    outer loop
      vertex -14.913416862487793 9 61.68060302734375
      vertex -14.913416862487793 9 24.619396209716797
      vertex -16.535533905029297 9 62.76446533203125
    endloop
  endfacet
  facet normal 0 1 0
    outer loop
      vertex -16.535533905029297 9 23.535533905029297
      vertex -16.535533905029297 9 62.76446533203125
      vertex -14.913416862487793 9 24.619396209716797
    endloop
  endfacet
  facet normal 0 1 0
    outer loop
      vertex -16.535533905029297 9 62.76446533203125
      vertex -16.535533905029297 9 23.535533905029297
      vertex -17.619396209716797 9 64.38658142089844
    endloop
  endfacet
  facet normal 0 1 0
    outer loop
      vertex -17.619396209716797 9 21.91341781616211
      vertex -17.619396209716797 9 64.38658142089844
      vertex -16.535533905029297 9 23.535533905029297
    endloop
  endfacet
  facet normal 0 1 0
    outer loop
      vertex -17.619396209716797 9 64.38658142089844
      vertex -17.619396209716797 9 21.91341781616211
      vertex -18 9 66.30000305175781
    endloop
  endfacet
  facet normal 0 1 0
    outer loop
      vertex -18 9 20
      vertex -18 9 66.30000305175781
      vertex -17.619396209716797 9 21.91341781616211
    endloop
  endfacet
  facet normal 0 1 0
    outer loop
      vertex -21 9 0
      vertex -18 9 66.30000305175781
      vertex -18 9 20
    endloop
  endfacet
  facet normal 0 1 0
    outer loop
      vertex -18 9 66.30000305175781
      vertex -21 9 0
      vertex -21 9 100
    endloop
  endfacet
  facet normal 0 1 0
    outer loop
      vertex -17.619396209716797 9 18.08658218383789
      vertex -21 9 0
      vertex -18 9 20
    endloop
  endfacet
  facet normal 0 1 0
    outer loop
      vertex -16.535533905029297 9 16.464466094970703
      vertex -21 9 0
      vertex -17.619396209716797 9 18.08658218383789
    endloop
  endfacet
  facet normal 0 1 0
    outer loop
      vertex -14.913416862487793 9 15.38060188293457
      vertex -21 9 0
      vertex -16.535533905029297 9 16.464466094970703
    endloop
  endfacet
  facet normal 0 1 0
    outer loop
      vertex -13 9 15
      vertex -21 9 0
      vertex -14.913416862487793 9 15.38060188293457
    endloop
  endfacet
  facet normal 0 1 0
    outer loop
      vertex -11.08658218383789 9 15.38060188293457
      vertex -21 9 0
      vertex -13 9 15
    endloop
  endfacet
  facet normal 0.5555696478325582 0 0.8314700033117293
    outer loop
      vertex -11.08658218383789 19 70.91939544677734
      vertex -9.464465141296387 9 69.83553314208984
      vertex -9.464465141296387 19 69.83553314208984
    endloop
  endfacet
  facet normal 0.5555696478325582 0 0.8314700033117293
    outer loop
      vertex -9.464465141296387 9 69.83553314208984
      vertex -11.08658218383789 19 70.91939544677734
      vertex -11.08658218383789 9 70.91939544677734
    endloop
  endfacet
  facet normal 0.8314696266147378 0 0.555570211599892
    outer loop
      vertex -9.464465141296387 9 69.83553314208984
      vertex -8.38060188293457 19 68.21341705322266
      vertex -9.464465141296387 19 69.83553314208984
    endloop
  endfacet
  facet normal 0.8314696266147378 0 0.555570211599892
    outer loop
      vertex -8.38060188293457 19 68.21341705322266
      vertex -9.464465141296387 9 69.83553314208984
      vertex -8.38060188293457 9 68.21341705322266
    endloop
  endfacet
  facet normal -0.5555696478325582 0 0.8314700033117293
    outer loop
      vertex -16.535533905029297 19 69.83553314208984
      vertex -14.913416862487793 9 70.91939544677734
      vertex -14.913416862487793 19 70.91939544677734
    endloop
  endfacet
  facet normal -0.5555696478325582 0 0.8314700033117293
    outer loop
      vertex -14.913416862487793 9 70.91939544677734
      vertex -16.535533905029297 19 69.83553314208984
      vertex -16.535533905029297 9 69.83553314208984
    endloop
  endfacet
  facet normal 0.5555696478325582 0 -0.8314700033117293
    outer loop
      vertex -11.08658218383789 9 61.68060302734375
      vertex -9.464465141296387 19 62.76446533203125
      vertex -9.464465141296387 9 62.76446533203125
    endloop
  endfacet
  facet normal 0.5555696478325582 0 -0.8314700033117293
    outer loop
      vertex -9.464465141296387 19 62.76446533203125
      vertex -11.08658218383789 9 61.68060302734375
      vertex -11.08658218383789 19 61.68060302734375
    endloop
  endfacet
  facet normal 0.9807854121668168 0 -0.195089659594678
    outer loop
      vertex -8 9 66.30000305175781
      vertex -8.38060188293457 19 64.38658142089844
      vertex -8 19 66.30000305175781
    endloop
  endfacet
  facet normal 0.9807854121668168 0 -0.195089659594678
    outer loop
      vertex -8.38060188293457 19 64.38658142089844
      vertex -8 9 66.30000305175781
      vertex -8.38060188293457 9 64.38658142089844
    endloop
  endfacet
  facet normal -0.8314698524282215 0 0.5555698736459633
    outer loop
      vertex -17.619396209716797 9 68.21341705322266
      vertex -16.535533905029297 19 69.83553314208984
      vertex -17.619396209716797 19 68.21341705322266
    endloop
  endfacet
  facet normal -0.8314698524282215 0 0.5555698736459633
    outer loop
      vertex -16.535533905029297 19 69.83553314208984
      vertex -17.619396209716797 9 68.21341705322266
      vertex -16.535533905029297 9 69.83553314208984
    endloop
  endfacet
  facet normal -0.19509294865882976 0 0.9807847579278561
    outer loop
      vertex -14.913416862487793 19 70.91939544677734
      vertex -13 9 71.30000305175781
      vertex -13 19 71.30000305175781
    endloop
  endfacet
  facet normal -0.19509294865882976 0 0.9807847579278561
    outer loop
      vertex -13 9 71.30000305175781
      vertex -14.913416862487793 19 70.91939544677734
      vertex -14.913416862487793 9 70.91939544677734
    endloop
  endfacet
  facet normal -0.5555696478325582 0 -0.8314700033117293
    outer loop
      vertex -16.535533905029297 9 62.76446533203125
      vertex -14.913416862487793 19 61.68060302734375
      vertex -14.913416862487793 9 61.68060302734375
    endloop
  endfacet
  facet normal -0.5555696478325582 0 -0.8314700033117293
    outer loop
      vertex -14.913416862487793 19 61.68060302734375
      vertex -16.535533905029297 9 62.76446533203125
      vertex -16.535533905029297 19 62.76446533203125
    endloop
  endfacet
  facet normal 0.8314696266147378 0 -0.555570211599892
    outer loop
      vertex -8.38060188293457 9 64.38658142089844
      vertex -9.464465141296387 19 62.76446533203125
      vertex -8.38060188293457 19 64.38658142089844
    endloop
  endfacet
  facet normal 0.8314696266147378 0 -0.555570211599892
    outer loop
      vertex -9.464465141296387 19 62.76446533203125
      vertex -8.38060188293457 9 64.38658142089844
      vertex -9.464465141296387 9 62.76446533203125
    endloop
  endfacet
  facet normal 0.1950909741969338 0 -0.9807851506761771
    outer loop
      vertex -13 9 61.29999923706055
      vertex -11.08658218383789 19 61.68060302734375
      vertex -11.08658218383789 9 61.68060302734375
    endloop
  endfacet
  facet normal 0.1950909741969338 0 -0.9807851506761771
    outer loop
      vertex -11.08658218383789 19 61.68060302734375
      vertex -13 9 61.29999923706055
      vertex -13 19 61.29999923706055
    endloop
  endfacet
  facet normal 0.9807852633251953 0 0.19509040787318935
    outer loop
      vertex -8.38060188293457 9 68.21341705322266
      vertex -8 19 66.30000305175781
      vertex -8.38060188293457 19 68.21341705322266
    endloop
  endfacet
  facet normal 0.9807852633251953 0 0.19509040787318935
    outer loop
      vertex -8 19 66.30000305175781
      vertex -8.38060188293457 9 68.21341705322266
      vertex -8 9 66.30000305175781
    endloop
  endfacet
  facet normal 0.19509285512272623 0 0.9807847765335997
    outer loop
      vertex -13 19 71.30000305175781
      vertex -11.08658218383789 9 70.91939544677734
      vertex -11.08658218383789 19 70.91939544677734
    endloop
  endfacet
  facet normal 0.19509285512272623 0 0.9807847765335997
    outer loop
      vertex -11.08658218383789 9 70.91939544677734
      vertex -13 19 71.30000305175781
      vertex -13 9 71.30000305175781
    endloop
  endfacet
  facet normal -0.19509106773220689 0 -0.9807851320707851
    outer loop
      vertex -14.913416862487793 9 61.68060302734375
      vertex -13 19 61.29999923706055
      vertex -13 9 61.29999923706055
    endloop
  endfacet
  facet normal -0.19509106773220689 0 -0.9807851320707851
    outer loop
      vertex -13 19 61.29999923706055
      vertex -14.913416862487793 9 61.68060302734375
      vertex -14.913416862487793 19 61.68060302734375
    endloop
  endfacet
  facet normal -0.9807852250974771 0 -0.19509060005672058
    outer loop
      vertex -17.619396209716797 9 64.38658142089844
      vertex -18 19 66.30000305175781
      vertex -17.619396209716797 19 64.38658142089844
    endloop
  endfacet
  facet normal -0.9807852250974771 0 -0.19509060005672058
    outer loop
      vertex -18 19 66.30000305175781
      vertex -17.619396209716797 9 64.38658142089844
      vertex -18 9 66.30000305175781
    endloop
  endfacet
  facet normal -0.8314698524282215 0 -0.5555698736459633
    outer loop
      vertex -16.535533905029297 9 62.76446533203125
      vertex -17.619396209716797 19 64.38658142089844
      vertex -16.535533905029297 19 62.76446533203125
    endloop
  endfacet
  facet normal -0.8314698524282215 0 -0.5555698736459633
    outer loop
      vertex -17.619396209716797 19 64.38658142089844
      vertex -16.535533905029297 9 62.76446533203125
      vertex -17.619396209716797 9 64.38658142089844
    endloop
  endfacet
  facet normal -0.9807850762544488 0 0.19509134833855366
    outer loop
      vertex -18 9 66.30000305175781
      vertex -17.619396209716797 19 68.21341705322266
      vertex -18 19 66.30000305175781
    endloop
  endfacet
  facet normal -0.9807850762544488 0 0.19509134833855366
    outer loop
      vertex -17.619396209716797 19 68.21341705322266
      vertex -18 9 66.30000305175781
      vertex -17.619396209716797 9 68.21341705322266
    endloop
  endfacet
  facet normal 0 1 0
    outer loop
      vertex -13.489545822143555 19 68.44483947753906
      vertex -13 19 71.30000305175781
      vertex -11.08658218383789 19 70.91939544677734
    endloop
  endfacet
  facet normal 0 1 0
    outer loop
      vertex -11.628321647644043 19 68.02002716064453
      vertex -11.08658218383789 19 70.91939544677734
      vertex -9.464465141296387 19 69.83553314208984
    endloop
  endfacet
  facet normal 0 1 0
    outer loop
      vertex -13 19 71.30000305175781
      vertex -13.489545822143555 19 68.44483947753906
      vertex -14.913416862487793 19 70.91939544677734
    endloop
  endfacet
  facet normal 0 1 0
    outer loop
      vertex -14.913416862487793 19 70.91939544677734
      vertex -13.489545822143555 19 68.44483947753906
      vertex -16.535533905029297 19 69.83553314208984
    endloop
  endfacet
  facet normal 0 1 0
    outer loop
      vertex -11.628321647644043 19 68.02002716064453
      vertex -9.464465141296387 19 69.83553314208984
      vertex -8.38060188293457 19 68.21341705322266
    endloop
  endfacet
  facet normal 0 1 0
    outer loop
      vertex -11.08658218383789 19 70.91939544677734
      vertex -11.628321647644043 19 68.02002716064453
      vertex -13.489545822143555 19 68.44483947753906
    endloop
  endfacet
  facet normal 0 1 0
    outer loop
      vertex -10.799999237060547 19 66.30000305175781
      vertex -8.38060188293457 19 68.21341705322266
      vertex -8 19 66.30000305175781
    endloop
  endfacet
  facet normal 0 1 0
    outer loop
      vertex -8.38060188293457 19 68.21341705322266
      vertex -10.799999237060547 19 66.30000305175781
      vertex -11.628321647644043 19 68.02002716064453
    endloop
  endfacet
  facet normal 0 1 0
    outer loop
      vertex -8.38060188293457 19 64.38658142089844
      vertex -10.799999237060547 19 66.30000305175781
      vertex -8 19 66.30000305175781
    endloop
  endfacet
  facet normal 0 1 0
    outer loop
      vertex -10.799999237060547 19 66.30000305175781
      vertex -8.38060188293457 19 64.38658142089844
      vertex -11.628321647644043 19 64.57997131347656
    endloop
  endfacet
  facet normal 0 1 0
    outer loop
      vertex -9.464465141296387 19 62.76446533203125
      vertex -11.628321647644043 19 64.57997131347656
      vertex -8.38060188293457 19 64.38658142089844
    endloop
  endfacet
  facet normal 0 1 0
    outer loop
      vertex -11.08658218383789 19 61.68060302734375
      vertex -11.628321647644043 19 64.57997131347656
      vertex -9.464465141296387 19 62.76446533203125
    endloop
  endfacet
  facet normal 0 1 0
    outer loop
      vertex -14.982131004333496 19 67.25454711914062
      vertex -16.535533905029297 19 69.83553314208984
      vertex -13.489545822143555 19 68.44483947753906
    endloop
  endfacet
  facet normal 0 1 0
    outer loop
      vertex -16.535533905029297 19 69.83553314208984
      vertex -14.982131004333496 19 67.25454711914062
      vertex -17.619396209716797 19 68.21341705322266
    endloop
  endfacet
  facet normal 0 1 0
    outer loop
      vertex -14.982131004333496 19 67.25454711914062
      vertex -18 19 66.30000305175781
      vertex -17.619396209716797 19 68.21341705322266
    endloop
  endfacet
  facet normal 0 1 0
    outer loop
      vertex -14.982131004333496 19 65.345458984375
      vertex -18 19 66.30000305175781
      vertex -14.982131004333496 19 67.25454711914062
    endloop
  endfacet
  facet normal 0 1 0
    outer loop
      vertex -14.982131004333496 19 65.345458984375
      vertex -17.619396209716797 19 64.38658142089844
      vertex -18 19 66.30000305175781
    endloop
  endfacet
  facet normal 0 1 0
    outer loop
      vertex -16.535533905029297 19 62.76446533203125
      vertex -14.982131004333496 19 65.345458984375
      vertex -13.489545822143555 19 64.15515899658203
    endloop
  endfacet
  facet normal 0 1 0
    outer loop
      vertex -11.628321647644043 19 64.57997131347656
      vertex -11.08658218383789 19 61.68060302734375
      vertex -13.489545822143555 19 64.15515899658203
    endloop
  endfacet
  facet normal 0 1 0
    outer loop
      vertex -14.982131004333496 19 65.345458984375
      vertex -16.535533905029297 19 62.76446533203125
      vertex -17.619396209716797 19 64.38658142089844
    endloop
  endfacet
  facet normal 0 1 0
    outer loop
      vertex -13 19 61.29999923706055
      vertex -13.489545822143555 19 64.15515899658203
      vertex -11.08658218383789 19 61.68060302734375
    endloop
  endfacet
  facet normal 0 1 0
    outer loop
      vertex -13.489545822143555 19 64.15515899658203
      vertex -14.913416862487793 19 61.68060302734375
      vertex -16.535533905029297 19 62.76446533203125
    endloop
  endfacet
  facet normal 0 1 0
    outer loop
      vertex -13.489545822143555 19 64.15515899658203
      vertex -13 19 61.29999923706055
      vertex -14.913416862487793 19 61.68060302734375
    endloop
  endfacet
  facet normal 0.8314698524282215 0 0.5555698736459633
    outer loop
      vertex 102.83553314208984 9 23.535533905029297
      vertex 103.91939544677734 19 21.91341781616211
      vertex 102.83553314208984 19 23.535533905029297
    endloop
  endfacet
  facet normal 0.8314698524282215 0 0.5555698736459633
    outer loop
      vertex 103.91939544677734 19 21.91341781616211
      vertex 102.83553314208984 9 23.535533905029297
      vertex 103.91939544677734 9 21.91341781616211
    endloop
  endfacet
  facet normal 0.19509040787318935 0 -0.9807852633251953
    outer loop
      vertex 99.30000305175781 9 15
      vertex 101.21341705322266 19 15.38060188293457
      vertex 101.21341705322266 9 15.38060188293457
    endloop
  endfacet
  facet normal 0.19509040787318935 0 -0.9807852633251953
    outer loop
      vertex 101.21341705322266 19 15.38060188293457
      vertex 99.30000305175781 9 15
      vertex 99.30000305175781 19 15
    endloop
  endfacet
  facet normal 0.5555698736459633 0 0.8314698524282215
    outer loop
      vertex 101.21341705322266 19 24.619396209716797
      vertex 102.83553314208984 9 23.535533905029297
      vertex 102.83553314208984 19 23.535533905029297
    endloop
  endfacet
  facet normal 0.5555698736459633 0 0.8314698524282215
    outer loop
      vertex 102.83553314208984 9 23.535533905029297
      vertex 101.21341705322266 19 24.619396209716797
      vertex 101.21341705322266 9 24.619396209716797
    endloop
  endfacet
  facet normal 0.9807847765335997 0 -0.19509285512272623
    outer loop
      vertex 104.30000305175781 9 20
      vertex 103.91939544677734 19 18.08658218383789
      vertex 104.30000305175781 19 20
    endloop
  endfacet
  facet normal 0.9807847765335997 0 -0.19509285512272623
    outer loop
      vertex 103.91939544677734 19 18.08658218383789
      vertex 104.30000305175781 9 20
      vertex 103.91939544677734 9 18.08658218383789
    endloop
  endfacet
  facet normal 0.9807847765335997 0 0.19509285512272623
    outer loop
      vertex 103.91939544677734 9 21.91341781616211
      vertex 104.30000305175781 19 20
      vertex 103.91939544677734 19 21.91341781616211
    endloop
  endfacet
  facet normal 0.9807847765335997 0 0.19509285512272623
    outer loop
      vertex 104.30000305175781 19 20
      vertex 103.91939544677734 9 21.91341781616211
      vertex 104.30000305175781 9 20
    endloop
  endfacet
  facet normal -0.5555698736459633 0 0.8314698524282215
    outer loop
      vertex 95.76446533203125 19 23.535533905029297
      vertex 97.38658142089844 9 24.619396209716797
      vertex 97.38658142089844 19 24.619396209716797
    endloop
  endfacet
  facet normal -0.5555698736459633 0 0.8314698524282215
    outer loop
      vertex 97.38658142089844 9 24.619396209716797
      vertex 95.76446533203125 19 23.535533905029297
      vertex 95.76446533203125 9 23.535533905029297
    endloop
  endfacet
  facet normal 0 1 0
    outer loop
      vertex 98.81045532226562 19 22.144840240478516
      vertex 99.30000305175781 19 25
      vertex 101.21341705322266 19 24.619396209716797
    endloop
  endfacet
  facet normal 0 1 0
    outer loop
      vertex 100.67167663574219 19 21.720027923583984
      vertex 101.21341705322266 19 24.619396209716797
      vertex 102.83553314208984 19 23.535533905029297
    endloop
  endfacet
  facet normal 0 1 0
    outer loop
      vertex 99.30000305175781 19 25
      vertex 98.81045532226562 19 22.144840240478516
      vertex 97.38658142089844 19 24.619396209716797
    endloop
  endfacet
  facet normal 0 1 0
    outer loop
      vertex 97.38658142089844 19 24.619396209716797
      vertex 98.81045532226562 19 22.144840240478516
      vertex 95.76446533203125 19 23.535533905029297
    endloop
  endfacet
  facet normal 0 1 0
    outer loop
      vertex 100.67167663574219 19 21.720027923583984
      vertex 102.83553314208984 19 23.535533905029297
      vertex 103.91939544677734 19 21.91341781616211
    endloop
  endfacet
  facet normal 0 1 0
    outer loop
      vertex 101.21341705322266 19 24.619396209716797
      vertex 100.67167663574219 19 21.720027923583984
      vertex 98.81045532226562 19 22.144840240478516
    endloop
  endfacet
  facet normal 0 1 0
    outer loop
      vertex 101.5 19 20
      vertex 103.91939544677734 19 21.91341781616211
      vertex 104.30000305175781 19 20
    endloop
  endfacet
  facet normal 0 1 0
    outer loop
      vertex 103.91939544677734 19 21.91341781616211
      vertex 101.5 19 20
      vertex 100.67167663574219 19 21.720027923583984
    endloop
  endfacet
  facet normal 0 1 0
    outer loop
      vertex 103.91939544677734 19 18.08658218383789
      vertex 101.5 19 20
      vertex 104.30000305175781 19 20
    endloop
  endfacet
  facet normal 0 1 0
    outer loop
      vertex 101.5 19 20
      vertex 103.91939544677734 19 18.08658218383789
      vertex 100.67167663574219 19 18.279970169067383
    endloop
  endfacet
  facet normal 0 1 0
    outer loop
      vertex 102.83553314208984 19 16.464466094970703
      vertex 100.67167663574219 19 18.279970169067383
      vertex 103.91939544677734 19 18.08658218383789
    endloop
  endfacet
  facet normal 0 1 0
    outer loop
      vertex 101.21341705322266 19 15.38060188293457
      vertex 100.67167663574219 19 18.279970169067383
      vertex 102.83553314208984 19 16.464466094970703
    endloop
  endfacet
  facet normal 0 1 0
    outer loop
      vertex 97.31787109375 19 20.954544067382812
      vertex 95.76446533203125 19 23.535533905029297
      vertex 98.81045532226562 19 22.144840240478516
    endloop
  endfacet
  facet normal 0 1 0
    outer loop
      vertex 95.76446533203125 19 23.535533905029297
      vertex 97.31787109375 19 20.954544067382812
      vertex 94.68060302734375 19 21.91341781616211
    endloop
  endfacet
  facet normal 0 1 0
    outer loop
      vertex 97.31787109375 19 20.954544067382812
      vertex 94.30000305175781 19 20
      vertex 94.68060302734375 19 21.91341781616211
    endloop
  endfacet
  facet normal 0 1 0
    outer loop
      vertex 97.31787109375 19 19.045455932617188
      vertex 94.30000305175781 19 20
      vertex 97.31787109375 19 20.954544067382812
    endloop
  endfacet
  facet normal 0 1 0
    outer loop
      vertex 97.31787109375 19 19.045455932617188
      vertex 94.68060302734375 19 18.08658218383789
      vertex 94.30000305175781 19 20
    endloop
  endfacet
  facet normal 0 1 0
    outer loop
      vertex 95.76446533203125 19 16.464466094970703
      vertex 97.31787109375 19 19.045455932617188
      vertex 98.81045532226562 19 17.85515785217285
    endloop
  endfacet
  facet normal 0 1 0
    outer loop
      vertex 100.67167663574219 19 18.279970169067383
      vertex 101.21341705322266 19 15.38060188293457
      vertex 98.81045532226562 19 17.85515785217285
    endloop
  endfacet
  facet normal 0 1 0
    outer loop
      vertex 97.31787109375 19 19.045455932617188
      vertex 95.76446533203125 19 16.464466094970703
      vertex 94.68060302734375 19 18.08658218383789
    endloop
  endfacet
  facet normal 0 1 0
    outer loop
      vertex 99.30000305175781 19 15
      vertex 98.81045532226562 19 17.85515785217285
      vertex 101.21341705322266 19 15.38060188293457
    endloop
  endfacet
  facet normal 0 1 0
    outer loop
      vertex 98.81045532226562 19 17.85515785217285
      vertex 97.38658142089844 19 15.38060188293457
      vertex 95.76446533203125 19 16.464466094970703
    endloop
  endfacet
  facet normal 0 1 0
    outer loop
      vertex 98.81045532226562 19 17.85515785217285
      vertex 99.30000305175781 19 15
      vertex 97.38658142089844 19 15.38060188293457
    endloop
  endfacet
  facet normal -0.8314698524282215 0 -0.5555698736459633
    outer loop
      vertex 95.76446533203125 9 16.464466094970703
      vertex 94.68060302734375 19 18.08658218383789
      vertex 95.76446533203125 19 16.464466094970703
    endloop
  endfacet
  facet normal -0.8314698524282215 0 -0.5555698736459633
    outer loop
      vertex 94.68060302734375 19 18.08658218383789
      vertex 95.76446533203125 9 16.464466094970703
      vertex 94.68060302734375 9 18.08658218383789
    endloop
  endfacet
  facet normal -0.19509060005672058 0 0.9807852250974771
    outer loop
      vertex 97.38658142089844 19 24.619396209716797
      vertex 99.30000305175781 9 25
      vertex 99.30000305175781 19 25
    endloop
  endfacet
  facet normal -0.19509060005672058 0 0.9807852250974771
    outer loop
      vertex 99.30000305175781 9 25
      vertex 97.38658142089844 19 24.619396209716797
      vertex 97.38658142089844 9 24.619396209716797
    endloop
  endfacet
  facet normal -0.195089659594678 0 -0.9807854121668168
    outer loop
      vertex 97.38658142089844 9 15.38060188293457
      vertex 99.30000305175781 19 15
      vertex 99.30000305175781 9 15
    endloop
  endfacet
  facet normal -0.195089659594678 0 -0.9807854121668168
    outer loop
      vertex 99.30000305175781 19 15
      vertex 97.38658142089844 9 15.38060188293457
      vertex 97.38658142089844 19 15.38060188293457
    endloop
  endfacet
  facet normal -0.9807855248154327 0 -0.19508909326898877
    outer loop
      vertex 94.68060302734375 9 18.08658218383789
      vertex 94.30000305175781 19 20
      vertex 94.68060302734375 19 18.08658218383789
    endloop
  endfacet
  facet normal -0.9807855248154327 0 -0.19508909326898877
    outer loop
      vertex 94.30000305175781 19 20
      vertex 94.68060302734375 9 18.08658218383789
      vertex 94.30000305175781 9 20
    endloop
  endfacet
  facet normal -0.8314698524282215 0 0.5555698736459633
    outer loop
      vertex 94.68060302734375 9 21.91341781616211
      vertex 95.76446533203125 19 23.535533905029297
      vertex 94.68060302734375 19 21.91341781616211
    endloop
  endfacet
  facet normal -0.8314698524282215 0 0.5555698736459633
    outer loop
      vertex 95.76446533203125 19 23.535533905029297
      vertex 94.68060302734375 9 21.91341781616211
      vertex 95.76446533203125 9 23.535533905029297
    endloop
  endfacet
  facet normal -0.9807855248154327 0 0.19508909326898877
    outer loop
      vertex 94.30000305175781 9 20
      vertex 94.68060302734375 19 21.91341781616211
      vertex 94.30000305175781 19 20
    endloop
  endfacet
  facet normal -0.9807855248154327 0 0.19508909326898877
    outer loop
      vertex 94.68060302734375 19 21.91341781616211
      vertex 94.30000305175781 9 20
      vertex 94.68060302734375 9 21.91341781616211
    endloop
  endfacet
  facet normal 0.5555705495535451 0 -0.8314694008012392
    outer loop
      vertex 101.21341705322266 9 15.38060188293457
      vertex 102.83553314208984 19 16.464466094970703
      vertex 102.83553314208984 9 16.464466094970703
    endloop
  endfacet
  facet normal 0.5555705495535451 0 -0.8314694008012392
    outer loop
      vertex 102.83553314208984 19 16.464466094970703
      vertex 101.21341705322266 9 15.38060188293457
      vertex 101.21341705322266 19 15.38060188293457
    endloop
  endfacet
  facet normal 0.8314698524282215 0 -0.5555698736459633
    outer loop
      vertex 103.91939544677734 9 18.08658218383789
      vertex 102.83553314208984 19 16.464466094970703
      vertex 103.91939544677734 19 18.08658218383789
    endloop
  endfacet
  facet normal 0.8314698524282215 0 -0.5555698736459633
    outer loop
      vertex 102.83553314208984 19 16.464466094970703
      vertex 103.91939544677734 9 18.08658218383789
      vertex 102.83553314208984 9 16.464466094970703
    endloop
  endfacet
  facet normal -0.5555705495535451 0 -0.8314694008012392
    outer loop
      vertex 95.76446533203125 9 16.464466094970703
      vertex 97.38658142089844 19 15.38060188293457
      vertex 97.38658142089844 9 15.38060188293457
    endloop
  endfacet
  facet normal -0.5555705495535451 0 -0.8314694008012392
    outer loop
      vertex 97.38658142089844 19 15.38060188293457
      vertex 95.76446533203125 9 16.464466094970703
      vertex 95.76446533203125 19 16.464466094970703
    endloop
  endfacet
  facet normal 0.19509134833855366 0 0.9807850762544488
    outer loop
      vertex 99.30000305175781 19 25
      vertex 101.21341705322266 9 24.619396209716797
      vertex 101.21341705322266 19 24.619396209716797
    endloop
  endfacet
  facet normal 0.19509134833855366 0 0.9807850762544488
    outer loop
      vertex 101.21341705322266 9 24.619396209716797
      vertex 99.30000305175781 19 25
      vertex 99.30000305175781 9 25
    endloop
  endfacet
  facet normal -0.5555698736459633 0 0.8314698524282215
    outer loop
      vertex 95.76446533203125 19 69.83553314208984
      vertex 97.38658142089844 9 70.91939544677734
      vertex 97.38658142089844 19 70.91939544677734
    endloop
  endfacet
  facet normal -0.5555698736459633 0 0.8314698524282215
    outer loop
      vertex 97.38658142089844 9 70.91939544677734
      vertex 95.76446533203125 19 69.83553314208984
      vertex 95.76446533203125 9 69.83553314208984
    endloop
  endfacet
  facet normal 0.8314698524282215 0 0.5555698736459633
    outer loop
      vertex 102.83553314208984 9 69.83553314208984
      vertex 103.91939544677734 19 68.21341705322266
      vertex 102.83553314208984 19 69.83553314208984
    endloop
  endfacet
  facet normal 0.8314698524282215 0 0.5555698736459633
    outer loop
      vertex 103.91939544677734 19 68.21341705322266
      vertex 102.83553314208984 9 69.83553314208984
      vertex 103.91939544677734 9 68.21341705322266
    endloop
  endfacet
  facet normal 0.5555698736459633 0 0.8314698524282215
    outer loop
      vertex 101.21341705322266 19 70.91939544677734
      vertex 102.83553314208984 9 69.83553314208984
      vertex 102.83553314208984 19 69.83553314208984
    endloop
  endfacet
  facet normal 0.5555698736459633 0 0.8314698524282215
    outer loop
      vertex 102.83553314208984 9 69.83553314208984
      vertex 101.21341705322266 19 70.91939544677734
      vertex 101.21341705322266 9 70.91939544677734
    endloop
  endfacet
  facet normal -0.19509060005672058 0 -0.9807852250974771
    outer loop
      vertex 97.38658142089844 9 61.68060302734375
      vertex 99.30000305175781 19 61.29999923706055
      vertex 99.30000305175781 9 61.29999923706055
    endloop
  endfacet
  facet normal -0.19509060005672058 0 -0.9807852250974771
    outer loop
      vertex 99.30000305175781 19 61.29999923706055
      vertex 97.38658142089844 9 61.68060302734375
      vertex 97.38658142089844 19 61.68060302734375
    endloop
  endfacet
  facet normal -0.8314698524282215 0 0.5555698736459633
    outer loop
      vertex 94.68060302734375 9 68.21341705322266
      vertex 95.76446533203125 19 69.83553314208984
      vertex 94.68060302734375 19 68.21341705322266
    endloop
  endfacet
  facet normal -0.8314698524282215 0 0.5555698736459633
    outer loop
      vertex 95.76446533203125 19 69.83553314208984
      vertex 94.68060302734375 9 68.21341705322266
      vertex 95.76446533203125 9 69.83553314208984
    endloop
  endfacet
  facet normal 0.9807847021104648 0 0.19509322926766784
    outer loop
      vertex 103.91939544677734 9 68.21341705322266
      vertex 104.30000305175781 19 66.30000305175781
      vertex 103.91939544677734 19 68.21341705322266
    endloop
  endfacet
  facet normal 0.9807847021104648 0 0.19509322926766784
    outer loop
      vertex 104.30000305175781 19 66.30000305175781
      vertex 103.91939544677734 9 68.21341705322266
      vertex 104.30000305175781 9 66.30000305175781
    endloop
  endfacet
  facet normal 0.9807848509563063 0 -0.19509248097919127
    outer loop
      vertex 104.30000305175781 9 66.30000305175781
      vertex 103.91939544677734 19 64.38658142089844
      vertex 104.30000305175781 19 66.30000305175781
    endloop
  endfacet
  facet normal 0.9807848509563063 0 -0.19509248097919127
    outer loop
      vertex 103.91939544677734 19 64.38658142089844
      vertex 104.30000305175781 9 66.30000305175781
      vertex 103.91939544677734 9 64.38658142089844
    endloop
  endfacet
  facet normal 0.8314698524282215 0 -0.5555698736459633
    outer loop
      vertex 103.91939544677734 9 64.38658142089844
      vertex 102.83553314208984 19 62.76446533203125
      vertex 103.91939544677734 19 64.38658142089844
    endloop
  endfacet
  facet normal 0.8314698524282215 0 -0.5555698736459633
    outer loop
      vertex 102.83553314208984 19 62.76446533203125
      vertex 103.91939544677734 9 64.38658142089844
      vertex 102.83553314208984 9 62.76446533203125
    endloop
  endfacet
  facet normal 0.5555698736459633 0 -0.8314698524282215
    outer loop
      vertex 101.21341705322266 9 61.68060302734375
      vertex 102.83553314208984 19 62.76446533203125
      vertex 102.83553314208984 9 62.76446533203125
    endloop
  endfacet
  facet normal 0.5555698736459633 0 -0.8314698524282215
    outer loop
      vertex 102.83553314208984 19 62.76446533203125
      vertex 101.21341705322266 9 61.68060302734375
      vertex 101.21341705322266 19 61.68060302734375
    endloop
  endfacet
  facet normal 0.19509134833855366 0 -0.9807850762544488
    outer loop
      vertex 99.30000305175781 9 61.29999923706055
      vertex 101.21341705322266 19 61.68060302734375
      vertex 101.21341705322266 9 61.68060302734375
    endloop
  endfacet
  facet normal 0.19509134833855366 0 -0.9807850762544488
    outer loop
      vertex 101.21341705322266 19 61.68060302734375
      vertex 99.30000305175781 9 61.29999923706055
      vertex 99.30000305175781 19 61.29999923706055
    endloop
  endfacet
  facet normal -0.19509248097919127 0 0.9807848509563063
    outer loop
      vertex 97.38658142089844 19 70.91939544677734
      vertex 99.30000305175781 9 71.30000305175781
      vertex 99.30000305175781 19 71.30000305175781
    endloop
  endfacet
  facet normal -0.19509248097919127 0 0.9807848509563063
    outer loop
      vertex 99.30000305175781 9 71.30000305175781
      vertex 97.38658142089844 19 70.91939544677734
      vertex 97.38658142089844 9 70.91939544677734
    endloop
  endfacet
  facet normal -0.5555698736459633 0 -0.8314698524282215
    outer loop
      vertex 95.76446533203125 9 62.76446533203125
      vertex 97.38658142089844 19 61.68060302734375
      vertex 97.38658142089844 9 61.68060302734375
    endloop
  endfacet
  facet normal -0.5555698736459633 0 -0.8314698524282215
    outer loop
      vertex 97.38658142089844 19 61.68060302734375
      vertex 95.76446533203125 9 62.76446533203125
      vertex 95.76446533203125 19 62.76446533203125
    endloop
  endfacet
  facet normal 0.19509322926766784 0 0.9807847021104648
    outer loop
      vertex 99.30000305175781 19 71.30000305175781
      vertex 101.21341705322266 9 70.91939544677734
      vertex 101.21341705322266 19 70.91939544677734
    endloop
  endfacet
  facet normal 0.19509322926766784 0 0.9807847021104648
    outer loop
      vertex 101.21341705322266 9 70.91939544677734
      vertex 99.30000305175781 19 71.30000305175781
      vertex 99.30000305175781 9 71.30000305175781
    endloop
  endfacet
  facet normal -0.8314698524282215 0 -0.5555698736459633
    outer loop
      vertex 95.76446533203125 9 62.76446533203125
      vertex 94.68060302734375 19 64.38658142089844
      vertex 95.76446533203125 19 62.76446533203125
    endloop
  endfacet
  facet normal -0.8314698524282215 0 -0.5555698736459633
    outer loop
      vertex 94.68060302734375 19 64.38658142089844
      vertex 95.76446533203125 9 62.76446533203125
      vertex 94.68060302734375 9 64.38658142089844
    endloop
  endfacet
  facet normal -0.980785599235326 0 -0.1950887191320973
    outer loop
      vertex 94.68060302734375 9 64.38658142089844
      vertex 94.30000305175781 19 66.30000305175781
      vertex 94.68060302734375 19 64.38658142089844
    endloop
  endfacet
  facet normal -0.980785599235326 0 -0.1950887191320973
    outer loop
      vertex 94.30000305175781 19 66.30000305175781
      vertex 94.68060302734375 9 64.38658142089844
      vertex 94.30000305175781 9 66.30000305175781
    endloop
  endfacet
  facet normal -0.9807854503951111 0 0.1950894674072869
    outer loop
      vertex 94.30000305175781 9 66.30000305175781
      vertex 94.68060302734375 19 68.21341705322266
      vertex 94.30000305175781 19 66.30000305175781
    endloop
  endfacet
  facet normal -0.9807854503951111 0 0.1950894674072869
    outer loop
      vertex 94.68060302734375 19 68.21341705322266
      vertex 94.30000305175781 9 66.30000305175781
      vertex 94.68060302734375 9 68.21341705322266
    endloop
  endfacet
  facet normal 0 1 0
    outer loop
      vertex 98.81045532226562 19 68.44483947753906
      vertex 99.30000305175781 19 71.30000305175781
      vertex 101.21341705322266 19 70.91939544677734
    endloop
  endfacet
  facet normal 0 1 0
    outer loop
      vertex 100.67167663574219 19 68.02002716064453
      vertex 101.21341705322266 19 70.91939544677734
      vertex 102.83553314208984 19 69.83553314208984
    endloop
  endfacet
  facet normal 0 1 0
    outer loop
      vertex 99.30000305175781 19 71.30000305175781
      vertex 98.81045532226562 19 68.44483947753906
      vertex 97.38658142089844 19 70.91939544677734
    endloop
  endfacet
  facet normal 0 1 0
    outer loop
      vertex 97.38658142089844 19 70.91939544677734
      vertex 98.81045532226562 19 68.44483947753906
      vertex 95.76446533203125 19 69.83553314208984
    endloop
  endfacet
  facet normal 0 1 0
    outer loop
      vertex 100.67167663574219 19 68.02002716064453
      vertex 102.83553314208984 19 69.83553314208984
      vertex 103.91939544677734 19 68.21341705322266
    endloop
  endfacet
  facet normal 0 1 0
    outer loop
      vertex 101.21341705322266 19 70.91939544677734
      vertex 100.67167663574219 19 68.02002716064453
      vertex 98.81045532226562 19 68.44483947753906
    endloop
  endfacet
  facet normal 0 1 0
    outer loop
      vertex 101.5 19 66.30000305175781
      vertex 103.91939544677734 19 68.21341705322266
      vertex 104.30000305175781 19 66.30000305175781
    endloop
  endfacet
  facet normal 0 1 0
    outer loop
      vertex 103.91939544677734 19 68.21341705322266
      vertex 101.5 19 66.30000305175781
      vertex 100.67167663574219 19 68.02002716064453
    endloop
  endfacet
  facet normal 0 1 0
    outer loop
      vertex 103.91939544677734 19 64.38658142089844
      vertex 101.5 19 66.30000305175781
      vertex 104.30000305175781 19 66.30000305175781
    endloop
  endfacet
  facet normal 0 1 0
    outer loop
      vertex 101.5 19 66.30000305175781
      vertex 103.91939544677734 19 64.38658142089844
      vertex 100.67167663574219 19 64.57997131347656
    endloop
  endfacet
  facet normal 0 1 0
    outer loop
      vertex 102.83553314208984 19 62.76446533203125
      vertex 100.67167663574219 19 64.57997131347656
      vertex 103.91939544677734 19 64.38658142089844
    endloop
  endfacet
  facet normal 0 1 0
    outer loop
      vertex 101.21341705322266 19 61.68060302734375
      vertex 100.67167663574219 19 64.57997131347656
      vertex 102.83553314208984 19 62.76446533203125
    endloop
  endfacet
  facet normal 0 1 0
    outer loop
      vertex 97.31787109375 19 67.25454711914062
      vertex 95.76446533203125 19 69.83553314208984
      vertex 98.81045532226562 19 68.44483947753906
    endloop
  endfacet
  facet normal 0 1 0
    outer loop
      vertex 95.76446533203125 19 69.83553314208984
      vertex 97.31787109375 19 67.25454711914062
      vertex 94.68060302734375 19 68.21341705322266
    endloop
  endfacet
  facet normal 0 1 0
    outer loop
      vertex 97.31787109375 19 67.25454711914062
      vertex 94.30000305175781 19 66.30000305175781
      vertex 94.68060302734375 19 68.21341705322266
    endloop
  endfacet
  facet normal 0 1 0
    outer loop
      vertex 97.31787109375 19 65.345458984375
      vertex 94.30000305175781 19 66.30000305175781
      vertex 97.31787109375 19 67.25454711914062
    endloop
  endfacet
  facet normal 0 1 0
    outer loop
      vertex 97.31787109375 19 65.345458984375
      vertex 94.68060302734375 19 64.38658142089844
      vertex 94.30000305175781 19 66.30000305175781
    endloop
  endfacet
  facet normal 0 1 0
    outer loop
      vertex 95.76446533203125 19 62.76446533203125
      vertex 97.31787109375 19 65.345458984375
      vertex 98.81045532226562 19 64.15515899658203
    endloop
  endfacet
  facet normal 0 1 0
    outer loop
      vertex 100.67167663574219 19 64.57997131347656
      vertex 101.21341705322266 19 61.68060302734375
      vertex 98.81045532226562 19 64.15515899658203
    endloop
  endfacet
  facet normal 0 1 0
    outer loop
      vertex 97.31787109375 19 65.345458984375
      vertex 95.76446533203125 19 62.76446533203125
      vertex 94.68060302734375 19 64.38658142089844
    endloop
  endfacet
  facet normal 0 1 0
    outer loop
      vertex 99.30000305175781 19 61.29999923706055
      vertex 98.81045532226562 19 64.15515899658203
      vertex 101.21341705322266 19 61.68060302734375
    endloop
  endfacet
  facet normal 0 1 0
    outer loop
      vertex 98.81045532226562 19 64.15515899658203
      vertex 97.38658142089844 19 61.68060302734375
      vertex 95.76446533203125 19 62.76446533203125
    endloop
  endfacet
  facet normal 0 1 0
    outer loop
      vertex 98.81045532226562 19 64.15515899658203
      vertex 99.30000305175781 19 61.29999923706055
      vertex 97.38658142089844 19 61.68060302734375
    endloop
  endfacet
  facet normal 0 1 0
    outer loop
      vertex 10.59999942779541 0 0
      vertex 0 0 100
      vertex 10.59999942779541 0 100
    endloop
  endfacet
  facet normal 0 1 0
    outer loop
      vertex 0 0 100
      vertex 10.59999942779541 0 0
      vertex 0 0 0
    endloop
  endfacet
  facet normal 1 0 0
    outer loop
      vertex 0 0 100
      vertex 0 4 0
      vertex 0 4 100
    endloop
  endfacet
  facet normal 1 0 0
    outer loop
      vertex 0 4 0
      vertex 0 0 100
      vertex 0 0 0
    endloop
  endfacet
  facet normal 0 -1 0
    outer loop
      vertex 0 4 0
      vertex 86.30000305175781 4 100
      vertex 0 4 100
    endloop
  endfacet
  facet normal 0 -1 0
    outer loop
      vertex 86.30000305175781 4 100
      vertex 0 4 0
      vertex 86.30000305175781 4 0
    endloop
  endfacet
  facet normal -1 0 0
    outer loop
      vertex 86.30000305175781 0 0
      vertex 86.30000305175781 4 100
      vertex 86.30000305175781 4 0
    endloop
  endfacet
  facet normal -1 0 0
    outer loop
      vertex 86.30000305175781 4 100
      vertex 86.30000305175781 0 0
      vertex 86.30000305175781 0 100
    endloop
  endfacet
  facet normal 0 1 0
    outer loop
      vertex 86.30000305175781 0 0
      vertex 75.69999694824219 0 100
      vertex 86.30000305175781 0 100
    endloop
  endfacet
  facet normal 0 1 0
    outer loop
      vertex 75.69999694824219 0 100
      vertex 86.30000305175781 0 0
      vertex 75.69999694824219 0 0
    endloop
  endfacet
  facet normal -1 0 0
    outer loop
      vertex 75.69999694824219 -6 0
      vertex 75.69999694824219 0 100
      vertex 75.69999694824219 0 0
    endloop
  endfacet
  facet normal -1 0 0
    outer loop
      vertex 75.69999694824219 0 100
      vertex 75.69999694824219 -6 0
      vertex 75.69999694824219 -6 100
    endloop
  endfacet
  facet normal 0 -1 0
    outer loop
      vertex 75.69999694824219 -6 0
      vertex 91.30000305175781 -6 100
      vertex 75.69999694824219 -6 100
    endloop
  endfacet
  facet normal 0 -1 0
    outer loop
      vertex 91.30000305175781 -6 100
      vertex 75.69999694824219 -6 0
      vertex 91.30000305175781 -6 0
    endloop
  endfacet
  facet normal 1 0 0
    outer loop
      vertex 91.30000305175781 -6 100
      vertex 91.30000305175781 4 0
      vertex 91.30000305175781 4 100
    endloop
  endfacet
  facet normal 1 0 0
    outer loop
      vertex 91.30000305175781 4 0
      vertex 91.30000305175781 -6 100
      vertex 91.30000305175781 -6 0
    endloop
  endfacet
  facet normal 0 -1 0
    outer loop
      vertex 91.30000305175781 4 100
      vertex 98.81045532226562 4 68.44483947753906
      vertex 107.30000305175781 4 100
    endloop
  endfacet
  facet normal 0 -1 0
    outer loop
      vertex 91.30000305175781 4 100
      vertex 97.31787109375 4 67.25454711914062
      vertex 98.81045532226562 4 68.44483947753906
    endloop
  endfacet
  facet normal 0 -1 0
    outer loop
      vertex 91.30000305175781 4 100
      vertex 97.31787109375 4 65.345458984375
      vertex 97.31787109375 4 67.25454711914062
    endloop
  endfacet
  facet normal 0 -1 0
    outer loop
      vertex 97.31787109375 4 65.345458984375
      vertex 98.81045532226562 4 22.144840240478516
      vertex 98.81045532226562 4 64.15515899658203
    endloop
  endfacet
  facet normal 0 -1 0
    outer loop
      vertex 91.30000305175781 4 0
      vertex 97.31787109375 4 65.345458984375
      vertex 91.30000305175781 4 100
    endloop
  endfacet
  facet normal 0 -1 0
    outer loop
      vertex 97.31787109375 4 65.345458984375
      vertex 97.31787109375 4 20.954544067382812
      vertex 98.81045532226562 4 22.144840240478516
    endloop
  endfacet
  facet normal 0 -1 0
    outer loop
      vertex 97.31787109375 4 65.345458984375
      vertex 91.30000305175781 4 0
      vertex 97.31787109375 4 20.954544067382812
    endloop
  endfacet
  facet normal 0 -1 0
    outer loop
      vertex 97.31787109375 4 19.045455932617188
      vertex 91.30000305175781 4 0
      vertex 98.81045532226562 4 17.85515785217285
    endloop
  endfacet
  facet normal 0 -1 0
    outer loop
      vertex 97.31787109375 4 20.954544067382812
      vertex 91.30000305175781 4 0
      vertex 97.31787109375 4 19.045455932617188
    endloop
  endfacet
  facet normal 0 -1 0
    outer loop
      vertex 100.67167663574219 4 68.02002716064453
      vertex 107.30000305175781 4 100
      vertex 98.81045532226562 4 68.44483947753906
    endloop
  endfacet
  facet normal 0 -1 0
    outer loop
      vertex 101.5 4 66.30000305175781
      vertex 107.30000305175781 4 100
      vertex 100.67167663574219 4 68.02002716064453
    endloop
  endfacet
  facet normal 0 -1 0
    outer loop
      vertex 98.81045532226562 4 22.144840240478516
      vertex 100.67167663574219 4 64.57997131347656
      vertex 98.81045532226562 4 64.15515899658203
    endloop
  endfacet
  facet normal 0 -1 0
    outer loop
      vertex 100.67167663574219 4 21.720027923583984
      vertex 100.67167663574219 4 64.57997131347656
      vertex 98.81045532226562 4 22.144840240478516
    endloop
  endfacet
  facet normal 0 -1 0
    outer loop
      vertex 100.67167663574219 4 64.57997131347656
      vertex 100.67167663574219 4 21.720027923583984
      vertex 101.5 4 66.30000305175781
    endloop
  endfacet
  facet normal 0 -1 0
    outer loop
      vertex 101.5 4 20
      vertex 101.5 4 66.30000305175781
      vertex 100.67167663574219 4 21.720027923583984
    endloop
  endfacet
  facet normal 0 -1 0
    outer loop
      vertex 107.30000305175781 4 0
      vertex 101.5 4 66.30000305175781
      vertex 101.5 4 20
    endloop
  endfacet
  facet normal 0 -1 0
    outer loop
      vertex 107.30000305175781 4 0
      vertex 98.81045532226562 4 17.85515785217285
      vertex 91.30000305175781 4 0
    endloop
  endfacet
  facet normal 0 -1 0
    outer loop
      vertex 101.5 4 66.30000305175781
      vertex 107.30000305175781 4 0
      vertex 107.30000305175781 4 100
    endloop
  endfacet
  facet normal 0 -1 0
    outer loop
      vertex 100.67167663574219 4 18.279970169067383
      vertex 107.30000305175781 4 0
      vertex 101.5 4 20
    endloop
  endfacet
  facet normal 0 -1 0
    outer loop
      vertex 98.81045532226562 4 17.85515785217285
      vertex 107.30000305175781 4 0
      vertex 100.67167663574219 4 18.279970169067383
    endloop
  endfacet
  facet normal 1 0 0
    outer loop
      vertex 107.30000305175781 4 100
      vertex 107.30000305175781 9 0
      vertex 107.30000305175781 9 100
    endloop
  endfacet
  facet normal 1 0 0
    outer loop
      vertex 107.30000305175781 9 0
      vertex 107.30000305175781 4 100
      vertex 107.30000305175781 4 0
    endloop
  endfacet
  facet normal -1 0 0
    outer loop
      vertex -21 4 0
      vertex -21 9 100
      vertex -21 9 0
    endloop
  endfacet
  facet normal -1 0 0
    outer loop
      vertex -21 9 100
      vertex -21 4 0
      vertex -21 4 100
    endloop
  endfacet
  facet normal 0 -1 0
    outer loop
      vertex -21 4 100
      vertex -13.489545822143555 4 68.44483947753906
      vertex -5 4 100
    endloop
  endfacet
  facet normal 0 -1 0
    outer loop
      vertex -21 4 100
      vertex -14.982131004333496 4 67.25454711914062
      vertex -13.489545822143555 4 68.44483947753906
    endloop
  endfacet
  facet normal 0 -1 0
    outer loop
      vertex -21 4 100
      vertex -14.982131004333496 4 65.345458984375
      vertex -14.982131004333496 4 67.25454711914062
    endloop
  endfacet
  facet normal 0 -1 0
    outer loop
      vertex -14.982131004333496 4 65.345458984375
      vertex -13.489545822143555 4 22.144840240478516
      vertex -13.489545822143555 4 64.15515899658203
    endloop
  endfacet
  facet normal 0 -1 0
    outer loop
      vertex -21 4 0
      vertex -14.982131004333496 4 65.345458984375
      vertex -21 4 100
    endloop
  endfacet
  facet normal 0 -1 0
    outer loop
      vertex -14.982131004333496 4 65.345458984375
      vertex -14.982131004333496 4 20.954544067382812
      vertex -13.489545822143555 4 22.144840240478516
    endloop
  endfacet
  facet normal 0 -1 0
    outer loop
      vertex -14.982131004333496 4 65.345458984375
      vertex -21 4 0
      vertex -14.982131004333496 4 20.954544067382812
    endloop
  endfacet
  facet normal 0 -1 0
    outer loop
      vertex -14.982131004333496 4 19.045455932617188
      vertex -21 4 0
      vertex -13.489545822143555 4 17.85515785217285
    endloop
  endfacet
  facet normal 0 -1 0
    outer loop
      vertex -14.982131004333496 4 20.954544067382812
      vertex -21 4 0
      vertex -14.982131004333496 4 19.045455932617188
    endloop
  endfacet
  facet normal 0 -1 0
    outer loop
      vertex -11.628321647644043 4 68.02002716064453
      vertex -5 4 100
      vertex -13.489545822143555 4 68.44483947753906
    endloop
  endfacet
  facet normal 0 -1 0
    outer loop
      vertex -10.799999237060547 4 66.30000305175781
      vertex -5 4 100
      vertex -11.628321647644043 4 68.02002716064453
    endloop
  endfacet
  facet normal 0 -1 0
    outer loop
      vertex -13.489545822143555 4 22.144840240478516
      vertex -11.628321647644043 4 64.57997131347656
      vertex -13.489545822143555 4 64.15515899658203
    endloop
  endfacet
  facet normal 0 -1 0
    outer loop
      vertex -11.628321647644043 4 21.720027923583984
      vertex -11.628321647644043 4 64.57997131347656
      vertex -13.489545822143555 4 22.144840240478516
    endloop
  endfacet
  facet normal 0 -1 0
    outer loop
      vertex -11.628321647644043 4 64.57997131347656
      vertex -11.628321647644043 4 21.720027923583984
      vertex -10.799999237060547 4 66.30000305175781
    endloop
  endfacet
  facet normal 0 -1 0
    outer loop
      vertex -10.799999237060547 4 20
      vertex -10.799999237060547 4 66.30000305175781
      vertex -11.628321647644043 4 21.720027923583984
    endloop
  endfacet
  facet normal 0 -1 0
    outer loop
      vertex -5 4 0
      vertex -10.799999237060547 4 66.30000305175781
      vertex -10.799999237060547 4 20
    endloop
  endfacet
  facet normal 0 -1 0
    outer loop
      vertex -5 4 0
      vertex -13.489545822143555 4 17.85515785217285
      vertex -21 4 0
    endloop
  endfacet
  facet normal 0 -1 0
    outer loop
      vertex -10.799999237060547 4 66.30000305175781
      vertex -5 4 0
      vertex -5 4 100
    endloop
  endfacet
  facet normal 0 -1 0
    outer loop
      vertex -11.628321647644043 4 18.279970169067383
      vertex -5 4 0
      vertex -10.799999237060547 4 20
    endloop
  endfacet
  facet normal 0 -1 0
    outer loop
      vertex -13.489545822143555 4 17.85515785217285
      vertex -5 4 0
      vertex -11.628321647644043 4 18.279970169067383
    endloop
  endfacet
  facet normal -1 0 0
    outer loop
      vertex -5 -6 0
      vertex -5 4 100
      vertex -5 4 0
    endloop
  endfacet
  facet normal -1 0 0
    outer loop
      vertex -5 4 100
      vertex -5 -6 0
      vertex -5 -6 100
    endloop
  endfacet
  facet normal 0 -1 0
    outer loop
      vertex -5 -6 0
      vertex 10.59999942779541 -6 100
      vertex -5 -6 100
    endloop
  endfacet
  facet normal 0 -1 0
    outer loop
      vertex 10.59999942779541 -6 100
      vertex -5 -6 0
      vertex 10.59999942779541 -6 0
    endloop
  endfacet
  facet normal 1 0 0
    outer loop
      vertex 10.59999942779541 -6 100
      vertex 10.59999942779541 0 0
      vertex 10.59999942779541 0 100
    endloop
  endfacet
  facet normal 1 0 0
    outer loop
      vertex 10.59999942779541 0 0
      vertex 10.59999942779541 -6 100
      vertex 10.59999942779541 -6 0
    endloop
  endfacet
  facet normal 0 0 -1
    outer loop
      vertex 10.59999942779541 -6 0
      vertex 0 0 0
      vertex 10.59999942779541 0 0
    endloop
  endfacet
  facet normal 0 0 -1
    outer loop
      vertex -5 4 0
      vertex 0 0 0
      vertex -5 -6 0
    endloop
  endfacet
  facet normal 0 0 -1
    outer loop
      vertex -5 -6 0
      vertex 0 0 0
      vertex 10.59999942779541 -6 0
    endloop
  endfacet
  facet normal 0 0 -1
    outer loop
      vertex 91.30000305175781 -6 0
      vertex 86.30000305175781 0 0
      vertex 91.30000305175781 4 0
    endloop
  endfacet
  facet normal 0 0 -1
    outer loop
      vertex 75.69999694824219 -6 0
      vertex 86.30000305175781 0 0
      vertex 91.30000305175781 -6 0
    endloop
  endfacet
  facet normal 0 0 -1
    outer loop
      vertex 86.30000305175781 0 0
      vertex 75.69999694824219 -6 0
      vertex 75.69999694824219 0 0
    endloop
  endfacet
  facet normal 0 0 -1
    outer loop
      vertex 91.30000305175781 4 0
      vertex 107.30000305175781 9 0
      vertex 107.30000305175781 4 0
    endloop
  endfacet
  facet normal 0 0 -1
    outer loop
      vertex 86.30000305175781 4 0
      vertex 91.30000305175781 4 0
      vertex 86.30000305175781 0 0
    endloop
  endfacet
  facet normal 0 0 -1
    outer loop
      vertex 86.30000305175781 4 0
      vertex 107.30000305175781 9 0
      vertex 91.30000305175781 4 0
    endloop
  endfacet
  facet normal 0 0 -1
    outer loop
      vertex 0 4 0
      vertex 107.30000305175781 9 0
      vertex 86.30000305175781 4 0
    endloop
  endfacet
  facet normal 0 0 -1
    outer loop
      vertex 0 0 0
      vertex -5 4 0
      vertex 0 4 0
    endloop
  endfacet
  facet normal 0 0 -1
    outer loop
      vertex -21 9 0
      vertex 0 4 0
      vertex -5 4 0
    endloop
  endfacet
  facet normal 0 0 -1
    outer loop
      vertex -21 9 0
      vertex -5 4 0
      vertex -21 4 0
    endloop
  endfacet
  facet normal 0 0 -1
    outer loop
      vertex 0 4 0
      vertex -21 9 0
      vertex 107.30000305175781 9 0
    endloop
  endfacet
  facet normal 0 0 1
    outer loop
      vertex 107.30000305175781 9 100
      vertex 91.30000305175781 4 100
      vertex 107.30000305175781 4 100
    endloop
  endfacet
  facet normal 0 0 1
    outer loop
      vertex 86.30000305175781 0 100
      vertex 91.30000305175781 4 100
      vertex 86.30000305175781 4 100
    endloop
  endfacet
  facet normal 0 0 1
    outer loop
      vertex 107.30000305175781 9 100
      vertex 86.30000305175781 4 100
      vertex 91.30000305175781 4 100
    endloop
  endfacet
  facet normal 0 0 1
    outer loop
      vertex 107.30000305175781 9 100
      vertex 0 4 100
      vertex 86.30000305175781 4 100
    endloop
  endfacet
  facet normal 0 0 1
    outer loop
      vertex 0 4 100
      vertex -5 4 100
      vertex 0 0 100
    endloop
  endfacet
  facet normal 0 0 1
    outer loop
      vertex -21 9 100
      vertex 0 4 100
      vertex 107.30000305175781 9 100
    endloop
  endfacet
  facet normal 0 0 1
    outer loop
      vertex 0 4 100
      vertex -21 9 100
      vertex -5 4 100
    endloop
  endfacet
  facet normal 0 0 1
    outer loop
      vertex -5 4 100
      vertex -21 9 100
      vertex -21 4 100
    endloop
  endfacet
  facet normal 0 0 1
    outer loop
      vertex 91.30000305175781 4 100
      vertex 86.30000305175781 0 100
      vertex 91.30000305175781 -6 100
    endloop
  endfacet
  facet normal 0 0 1
    outer loop
      vertex 75.69999694824219 -6 100
      vertex 86.30000305175781 0 100
      vertex 75.69999694824219 0 100
    endloop
  endfacet
  facet normal 0 0 1
    outer loop
      vertex 86.30000305175781 0 100
      vertex 75.69999694824219 -6 100
      vertex 91.30000305175781 -6 100
    endloop
  endfacet
  facet normal 0 0 1
    outer loop
      vertex 0 0 100
      vertex 10.59999942779541 -6 100
      vertex 10.59999942779541 0 100
    endloop
  endfacet
  facet normal 0 0 1
    outer loop
      vertex 0 0 100
      vertex -5 -6 100
      vertex 10.59999942779541 -6 100
    endloop
  endfacet
  facet normal 0 0 1
    outer loop
      vertex -5 -6 100
      vertex 0 0 100
      vertex -5 4 100
    endloop
  endfacet
  facet normal 0.6234901595071054 0 0.7818311972528368
    outer loop
      vertex -14.982131004333496 19 19.045455932617188
      vertex -13.489545822143555 4 17.85515785217285
      vertex -13.489545822143555 19 17.85515785217285
    endloop
  endfacet
  facet normal 0.6234901595071054 0 0.7818311972528368
    outer loop
      vertex -13.489545822143555 4 17.85515785217285
      vertex -14.982131004333496 19 19.045455932617188
      vertex -14.982131004333496 4 19.045455932617188
    endloop
  endfacet
  facet normal -0.22252095620518822 0 -0.9749279071036631
    outer loop
      vertex -13.489545822143555 4 22.144840240478516
      vertex -11.628321647644043 19 21.720027923583984
      vertex -11.628321647644043 4 21.720027923583984
    endloop
  endfacet
  facet normal -0.22252095620518822 0 -0.9749279071036631
    outer loop
      vertex -11.628321647644043 19 21.720027923583984
      vertex -13.489545822143555 4 22.144840240478516
      vertex -13.489545822143555 19 22.144840240478516
    endloop
  endfacet
  facet normal 1 0 0
    outer loop
      vertex -14.982131004333496 4 20.954544067382812
      vertex -14.982131004333496 19 19.045455932617188
      vertex -14.982131004333496 19 20.954544067382812
    endloop
  endfacet
  facet normal 1 0 0
    outer loop
      vertex -14.982131004333496 19 19.045455932617188
      vertex -14.982131004333496 4 20.954544067382812
      vertex -14.982131004333496 4 19.045455932617188
    endloop
  endfacet
  facet normal -0.9009687411635757 0 -0.4338840022933799
    outer loop
      vertex -10.799999237060547 4 20
      vertex -11.628321647644043 19 21.720027923583984
      vertex -10.799999237060547 19 20
    endloop
  endfacet
  facet normal -0.9009687411635757 0 -0.4338840022933799
    outer loop
      vertex -11.628321647644043 19 21.720027923583984
      vertex -10.799999237060547 4 20
      vertex -11.628321647644043 4 21.720027923583984
    endloop
  endfacet
  facet normal -0.9009689292472053 0 0.43388361173377393
    outer loop
      vertex -11.628321647644043 4 18.279970169067383
      vertex -10.799999237060547 19 20
      vertex -11.628321647644043 19 18.279970169067383
    endloop
  endfacet
  facet normal -0.9009689292472053 0 0.43388361173377393
    outer loop
      vertex -10.799999237060547 19 20
      vertex -11.628321647644043 4 18.279970169067383
      vertex -10.799999237060547 4 20
    endloop
  endfacet
  facet normal 0.6234895488036878 0 -0.7818316842726276
    outer loop
      vertex -14.982131004333496 4 20.954544067382812
      vertex -13.489545822143555 19 22.144840240478516
      vertex -13.489545822143555 4 22.144840240478516
    endloop
  endfacet
  facet normal 0.6234895488036878 0 -0.7818316842726276
    outer loop
      vertex -13.489545822143555 19 22.144840240478516
      vertex -14.982131004333496 4 20.954544067382812
      vertex -14.982131004333496 19 20.954544067382812
    endloop
  endfacet
  facet normal -0.22252095620518822 0 0.9749279071036631
    outer loop
      vertex -13.489545822143555 19 17.85515785217285
      vertex -11.628321647644043 4 18.279970169067383
      vertex -11.628321647644043 19 18.279970169067383
    endloop
  endfacet
  facet normal -0.22252095620518822 0 0.9749279071036631
    outer loop
      vertex -11.628321647644043 4 18.279970169067383
      vertex -13.489545822143555 19 17.85515785217285
      vertex -13.489545822143555 4 17.85515785217285
    endloop
  endfacet
  facet normal 1 0 0
    outer loop
      vertex -14.982131004333496 4 67.25454711914062
      vertex -14.982131004333496 19 65.345458984375
      vertex -14.982131004333496 19 67.25454711914062
    endloop
  endfacet
  facet normal 1 0 0
    outer loop
      vertex -14.982131004333496 19 65.345458984375
      vertex -14.982131004333496 4 67.25454711914062
      vertex -14.982131004333496 4 65.345458984375
    endloop
  endfacet
  facet normal -0.22252095620518822 0 0.9749279071036631
    outer loop
      vertex -13.489545822143555 19 64.15515899658203
      vertex -11.628321647644043 4 64.57997131347656
      vertex -11.628321647644043 19 64.57997131347656
    endloop
  endfacet
  facet normal -0.22252095620518822 0 0.9749279071036631
    outer loop
      vertex -11.628321647644043 4 64.57997131347656
      vertex -13.489545822143555 19 64.15515899658203
      vertex -13.489545822143555 4 64.15515899658203
    endloop
  endfacet
  facet normal -0.9009691173303271 0 0.4338832211747895
    outer loop
      vertex -11.628321647644043 4 64.57997131347656
      vertex -10.799999237060547 19 66.30000305175781
      vertex -11.628321647644043 19 64.57997131347656
    endloop
  endfacet
  facet normal -0.9009691173303271 0 0.4338832211747895
    outer loop
      vertex -10.799999237060547 19 66.30000305175781
      vertex -11.628321647644043 4 64.57997131347656
      vertex -10.799999237060547 4 66.30000305175781
    endloop
  endfacet
  facet normal -0.9009683649947927 0 -0.4338847834144567
    outer loop
      vertex -10.799999237060547 4 66.30000305175781
      vertex -11.628321647644043 19 68.02002716064453
      vertex -10.799999237060547 19 66.30000305175781
    endloop
  endfacet
  facet normal -0.9009683649947927 0 -0.4338847834144567
    outer loop
      vertex -11.628321647644043 19 68.02002716064453
      vertex -10.799999237060547 4 66.30000305175781
      vertex -11.628321647644043 4 68.02002716064453
    endloop
  endfacet
  facet normal 0.6234883273934287 0 -0.7818326583125986
    outer loop
      vertex -14.982131004333496 4 67.25454711914062
      vertex -13.489545822143555 19 68.44483947753906
      vertex -13.489545822143555 4 68.44483947753906
    endloop
  endfacet
  facet normal 0.6234883273934287 0 -0.7818326583125986
    outer loop
      vertex -13.489545822143555 19 68.44483947753906
      vertex -14.982131004333496 4 67.25454711914062
      vertex -14.982131004333496 19 67.25454711914062
    endloop
  endfacet
  facet normal 0.6234907702093818 0 0.7818307102331756
    outer loop
      vertex -14.982131004333496 19 65.345458984375
      vertex -13.489545822143555 4 64.15515899658203
      vertex -13.489545822143555 19 64.15515899658203
    endloop
  endfacet
  facet normal 0.6234907702093818 0 0.7818307102331756
    outer loop
      vertex -13.489545822143555 4 64.15515899658203
      vertex -14.982131004333496 19 65.345458984375
      vertex -14.982131004333496 4 65.345458984375
    endloop
  endfacet
  facet normal -0.22252095620518822 0 -0.9749279071036631
    outer loop
      vertex -13.489545822143555 4 68.44483947753906
      vertex -11.628321647644043 19 68.02002716064453
      vertex -11.628321647644043 4 68.02002716064453
    endloop
  endfacet
  facet normal -0.22252095620518822 0 -0.9749279071036631
    outer loop
      vertex -11.628321647644043 19 68.02002716064453
      vertex -13.489545822143555 4 68.44483947753906
      vertex -13.489545822143555 19 68.44483947753906
    endloop
  endfacet
  facet normal -0.9009685458835683 0 -0.433884407795957
    outer loop
      vertex 101.5 4 20
      vertex 100.67167663574219 19 21.720027923583984
      vertex 101.5 19 20
    endloop
  endfacet
  facet normal -0.9009685458835683 0 -0.433884407795957
    outer loop
      vertex 100.67167663574219 19 21.720027923583984
      vertex 101.5 4 20
      vertex 100.67167663574219 4 21.720027923583984
    endloop
  endfacet
  facet normal 1 0 0
    outer loop
      vertex 97.31787109375 4 20.954544067382812
      vertex 97.31787109375 19 19.045455932617188
      vertex 97.31787109375 19 20.954544067382812
    endloop
  endfacet
  facet normal 1 0 0
    outer loop
      vertex 97.31787109375 19 19.045455932617188
      vertex 97.31787109375 4 20.954544067382812
      vertex 97.31787109375 4 19.045455932617188
    endloop
  endfacet
  facet normal -0.22252128132182714 0 0.974927832897847
    outer loop
      vertex 98.81045532226562 19 17.85515785217285
      vertex 100.67167663574219 4 18.279970169067383
      vertex 100.67167663574219 19 18.279970169067383
    endloop
  endfacet
  facet normal -0.22252128132182714 0 0.974927832897847
    outer loop
      vertex 100.67167663574219 4 18.279970169067383
      vertex 98.81045532226562 19 17.85515785217285
      vertex 98.81045532226562 4 17.85515785217285
    endloop
  endfacet
  facet normal -0.9009687339675088 0 0.4338840172361553
    outer loop
      vertex 100.67167663574219 4 18.279970169067383
      vertex 101.5 19 20
      vertex 100.67167663574219 19 18.279970169067383
    endloop
  endfacet
  facet normal -0.9009687339675088 0 0.4338840172361553
    outer loop
      vertex 101.5 19 20
      vertex 100.67167663574219 4 18.279970169067383
      vertex 101.5 4 20
    endloop
  endfacet
  facet normal 0.6234904030170333 0 0.781831003059905
    outer loop
      vertex 97.31787109375 19 19.045455932617188
      vertex 98.81045532226562 4 17.85515785217285
      vertex 98.81045532226562 19 17.85515785217285
    endloop
  endfacet
  facet normal 0.6234904030170333 0 0.781831003059905
    outer loop
      vertex 98.81045532226562 4 17.85515785217285
      vertex 97.31787109375 19 19.045455932617188
      vertex 97.31787109375 4 19.045455932617188
    endloop
  endfacet
  facet normal 0.6234897923136806 0 -0.7818314900799554
    outer loop
      vertex 97.31787109375 4 20.954544067382812
      vertex 98.81045532226562 19 22.144840240478516
      vertex 98.81045532226562 4 22.144840240478516
    endloop
  endfacet
  facet normal 0.6234897923136806 0 -0.7818314900799554
    outer loop
      vertex 98.81045532226562 19 22.144840240478516
      vertex 97.31787109375 4 20.954544067382812
      vertex 97.31787109375 19 20.954544067382812
    endloop
  endfacet
  facet normal -0.22252128132182714 0 -0.974927832897847
    outer loop
      vertex 98.81045532226562 4 22.144840240478516
      vertex 100.67167663574219 19 21.720027923583984
      vertex 100.67167663574219 4 21.720027923583984
    endloop
  endfacet
  facet normal -0.22252128132182714 0 -0.974927832897847
    outer loop
      vertex 100.67167663574219 19 21.720027923583984
      vertex 98.81045532226562 4 22.144840240478516
      vertex 98.81045532226562 19 22.144840240478516
    endloop
  endfacet
  facet normal -0.9009681697141637 0 -0.43388518891742517
    outer loop
      vertex 101.5 4 66.30000305175781
      vertex 100.67167663574219 19 68.02002716064453
      vertex 101.5 19 66.30000305175781
    endloop
  endfacet
  facet normal -0.9009681697141637 0 -0.43388518891742517
    outer loop
      vertex 100.67167663574219 19 68.02002716064453
      vertex 101.5 4 66.30000305175781
      vertex 100.67167663574219 4 68.02002716064453
    endloop
  endfacet
  facet normal -0.22252128132182714 0 -0.974927832897847
    outer loop
      vertex 98.81045532226562 4 68.44483947753906
      vertex 100.67167663574219 19 68.02002716064453
      vertex 100.67167663574219 4 68.02002716064453
    endloop
  endfacet
  facet normal -0.22252128132182714 0 -0.974927832897847
    outer loop
      vertex 100.67167663574219 19 68.02002716064453
      vertex 98.81045532226562 4 68.44483947753906
      vertex 98.81045532226562 19 68.44483947753906
    endloop
  endfacet
  facet normal 1 0 0
    outer loop
      vertex 97.31787109375 4 67.25454711914062
      vertex 97.31787109375 19 65.345458984375
      vertex 97.31787109375 19 67.25454711914062
    endloop
  endfacet
  facet normal 1 0 0
    outer loop
      vertex 97.31787109375 19 65.345458984375
      vertex 97.31787109375 4 67.25454711914062
      vertex 97.31787109375 4 65.345458984375
    endloop
  endfacet
  facet normal -0.22252128132182714 0 0.974927832897847
    outer loop
      vertex 98.81045532226562 19 64.15515899658203
      vertex 100.67167663574219 4 64.57997131347656
      vertex 100.67167663574219 19 64.57997131347656
    endloop
  endfacet
  facet normal -0.22252128132182714 0 0.974927832897847
    outer loop
      vertex 100.67167663574219 4 64.57997131347656
      vertex 98.81045532226562 19 64.15515899658203
      vertex 98.81045532226562 4 64.15515899658203
    endloop
  endfacet
  facet normal -0.9009689220509414 0 0.4338836266769752
    outer loop
      vertex 100.67167663574219 4 64.57997131347656
      vertex 101.5 19 66.30000305175781
      vertex 100.67167663574219 19 64.57997131347656
    endloop
  endfacet
  facet normal -0.9009689220509414 0 0.4338836266769752
    outer loop
      vertex 101.5 19 66.30000305175781
      vertex 100.67167663574219 4 64.57997131347656
      vertex 101.5 4 66.30000305175781
    endloop
  endfacet
  facet normal 0.6234885709035513 0 -0.7818324641204453
    outer loop
      vertex 97.31787109375 4 67.25454711914062
      vertex 98.81045532226562 19 68.44483947753906
      vertex 98.81045532226562 4 68.44483947753906
    endloop
  endfacet
  facet normal 0.6234885709035513 0 -0.7818324641204453
    outer loop
      vertex 98.81045532226562 19 68.44483947753906
      vertex 97.31787109375 4 67.25454711914062
      vertex 97.31787109375 19 67.25454711914062
    endloop
  endfacet
  facet normal 0.6234910137192449 0 0.7818305160399845
    outer loop
      vertex 97.31787109375 19 65.345458984375
      vertex 98.81045532226562 4 64.15515899658203
      vertex 98.81045532226562 19 64.15515899658203
    endloop
  endfacet
  facet normal 0.6234910137192449 0 0.7818305160399845
    outer loop
      vertex 98.81045532226562 4 64.15515899658203
      vertex 97.31787109375 19 65.345458984375
      vertex 97.31787109375 4 65.345458984375
    endloop
  endfacet
endsolid OpenSCAD_Model
